<svg width="9" height="164" viewBox="0 0 9 164" fill="none" xmlns="http://www.w3.org/2000/svg">
<circle r="4" transform="matrix(-1 0 0 1 4.89062 21.6751)" fill="#FF6257"/>
<circle r="4" transform="matrix(-1 0 0 1 4.89062 39.0459)" fill="#FF6257"/>
<circle r="4" transform="matrix(-1 0 0 1 4.89062 56.4166)" fill="#FF6257"/>
<circle r="4" transform="matrix(-1 0 0 1 4.89062 4.30444)" fill="#FF6257"/>
<circle r="4" transform="matrix(-1 0 0 1 4.89038 73.7873)" fill="#FF6257"/>
<circle r="4" transform="matrix(-1 0 0 1 4.89062 107.342)" fill="#FF6257"/>
<circle r="4" transform="matrix(-1 0 0 1 4.89062 124.713)" fill="#FF6257"/>
<circle r="4" transform="matrix(-1 0 0 1 4.89062 142.083)" fill="#FF6257"/>
<circle r="4" transform="matrix(-1 0 0 1 4.89062 89.9712)" fill="#FF6257"/>
<circle r="4" transform="matrix(-1 0 0 1 4.89038 159.454)" fill="#FF6257"/>
</svg>
