<svg width="171" height="54" viewBox="0 0 171 54" fill="none" xmlns="http://www.w3.org/2000/svg">
<path d="M19.0482 36.9983C18.3357 37.1789 17.5947 37.2769 16.8304 37.2769C11.3635 37.2769 6.71401 32.3259 6.71401 25.9065C6.71401 19.4872 11.3123 14.6452 16.8304 14.6452C22.3485 14.6452 26.7423 19.4869 26.7423 25.9065C26.7423 26.9506 26.6243 27.9551 26.4059 28.9067L31.4659 34.4785C32.7705 31.9611 33.5003 29.0341 33.5003 25.8637C33.5003 15.9698 26.3311 8.56177 16.7281 8.56177C7.16898 8.56177 0 15.9211 0 25.8637C0 35.8548 7.1692 43.3606 16.7281 43.3606C19.1958 43.3606 21.5019 42.8607 23.5678 41.9511L19.0482 36.9983Z" fill="#0F5E7B"/>
<path d="M14.2502 23.8389H19.1252L33.5002 39.4014V44.4951H28.4065L14.2502 28.9014V23.8389Z" fill="#0F5E7B"/>
<path d="M66.6759 44.4951V15.1551H73.9209L78.6459 28.2051C78.9459 29.0451 79.2309 29.9301 79.5009 30.8601C79.7709 31.7901 80.0559 32.7051 80.3559 33.6051H80.5359C80.8359 32.7051 81.1059 31.7901 81.3459 30.8601C81.6159 29.9301 81.9009 29.0451 82.2009 28.2051L86.8359 15.1551H94.0359V44.4951H88.0059V33.7401C88.0059 32.7801 88.0509 31.7151 88.1409 30.5451C88.2609 29.3451 88.3809 28.1451 88.5009 26.9451C88.6509 25.7451 88.7709 24.6801 88.8609 23.7501H88.6809L86.2959 30.7251L82.1109 41.9301H78.4659L74.2809 30.7251L71.9409 23.7501H71.7609C71.8809 24.6801 72.0009 25.7451 72.1209 26.9451C72.2409 28.1451 72.3459 29.3451 72.4359 30.5451C72.5559 31.7151 72.6159 32.7801 72.6159 33.7401V44.4951H66.6759ZM100.953 44.4951V15.1551H119.313V20.7351H107.568V26.6301H117.558V32.1651H107.568V38.9151H119.763V44.4951H100.953ZM120.75 44.4951L127.59 32.8851L121.155 22.1751H128.265L130.245 25.7751C130.545 26.4051 130.86 27.0501 131.19 27.7101C131.52 28.3401 131.835 28.9701 132.135 29.6001H132.315C132.555 28.9701 132.81 28.3401 133.08 27.7101C133.35 27.0501 133.605 26.4051 133.845 25.7751L135.375 22.1751H142.215L135.735 33.6501L142.62 44.4951H135.51L133.35 40.8051C132.99 40.1751 132.63 39.5301 132.27 38.8701C131.94 38.2101 131.595 37.5651 131.235 36.9351H131.055C130.785 37.5651 130.5 38.2101 130.2 38.8701C129.9 39.5001 129.615 40.1451 129.345 40.8051L127.59 44.4951H120.75Z" fill="#0F5E7B"/>
<path d="M42.6931 40.1215H51.0431V32.9215C51.0431 31.9882 51.0764 30.8882 51.1431 29.6215C51.2097 28.3548 51.2597 27.2548 51.2931 26.3215H51.0931C50.6931 27.1548 50.2764 27.9715 49.8431 28.7715C49.4097 29.5715 48.9597 30.4048 48.4931 31.2715L42.6931 40.1215ZM51.0431 52.7715V44.5715H36.9931V40.6715L49.5931 20.9715H56.4431V40.1215H60.4431V44.5715H56.4431V52.7715H51.0431Z" fill="#0F5E7B"/>
<circle cx="151.933" cy="23.1665" r="1.5" fill="#FF6257"/>
<circle cx="169.013" cy="23.1665" r="1.5" fill="#FF6257"/>
<circle cx="160.473" cy="23.1665" r="1.5" fill="#FF6257"/>
<circle cx="151.933" cy="29.6665" r="1.5" fill="#FF6257"/>
<circle cx="169.013" cy="29.6665" r="1.5" fill="#FF6257"/>
<circle cx="160.473" cy="29.6665" r="1.5" fill="#FF6257"/>
<circle cx="151.933" cy="36.1665" r="1.5" fill="#FF6257"/>
<circle cx="169.013" cy="36.1665" r="1.5" fill="#FF6257"/>
<circle cx="160.473" cy="36.1665" r="1.5" fill="#FF6257"/>
<circle cx="151.933" cy="42.6665" r="1.5" fill="#FF6257"/>
<circle cx="169.013" cy="42.6665" r="1.5" fill="#FF6257"/>
<circle cx="160.473" cy="42.6665" r="1.5" fill="#FF6257"/>
</svg>
