<svg width="178" height="54" viewBox="0 0 178 54" fill="none" xmlns="http://www.w3.org/2000/svg">
<path d="M19.517 36.5188C18.8044 36.6994 18.0635 36.7974 17.2991 36.7974C11.8322 36.7974 7.18276 31.8464 7.18276 25.427C7.18276 19.0077 11.7811 14.1657 17.2991 14.1657C22.8172 14.1657 27.2111 19.0074 27.2111 25.427C27.2111 26.4711 27.093 27.4756 26.8746 28.4272L31.9347 33.999C33.2393 31.4816 33.969 28.5546 33.969 25.3842C33.969 15.4903 26.7998 8.08228 17.1968 8.08228C7.63773 8.08228 0.46875 15.4417 0.46875 25.3842C0.46875 35.3753 7.63795 42.8811 17.1968 42.8811C19.6645 42.8811 21.9707 42.3812 24.0365 41.4716L19.517 36.5188Z" fill="#0F5E7B"/>
<path d="M14.719 23.3594H19.594L33.969 38.9219V44.0156H28.8752L14.719 28.4219V23.3594Z" fill="#0F5E7B"/>
<path d="M64.8131 44.0156V14.6756H72.0581L76.7831 27.7256C77.0831 28.5656 77.3681 29.4506 77.6381 30.3806C77.9081 31.3106 78.1931 32.2256 78.4931 33.1256H78.6731C78.9731 32.2256 79.2431 31.3106 79.4831 30.3806C79.7531 29.4506 80.0381 28.5656 80.3381 27.7256L84.9731 14.6756H92.1731V44.0156H86.1431V33.2606C86.1431 32.3006 86.1881 31.2356 86.2781 30.0656C86.3981 28.8656 86.5181 27.6656 86.6381 26.4656C86.7881 25.2656 86.9081 24.2006 86.9981 23.2706H86.8181L84.4331 30.2456L80.2481 41.4506H76.6031L72.4181 30.2456L70.0781 23.2706H69.8981C70.0181 24.2006 70.1381 25.2656 70.2581 26.4656C70.3781 27.6656 70.4831 28.8656 70.5731 30.0656C70.6931 31.2356 70.7531 32.3006 70.7531 33.2606V44.0156H64.8131ZM99.0905 44.0156V14.6756H117.45V20.2556H105.705V26.1506H115.695V31.6856H105.705V38.4356H117.9V44.0156H99.0905Z" fill="#0F5E7B"/>
<path d="M121.588 44.0156L128.428 32.4056L121.993 21.6956H129.103L131.083 25.2956C131.383 25.9256 131.698 26.5706 132.028 27.2306C132.358 27.8606 132.673 28.4906 132.973 29.1206H133.153C133.393 28.4906 133.648 27.8606 133.918 27.2306C134.188 26.5706 134.443 25.9256 134.683 25.2956L136.213 21.6956H143.053L136.573 33.1706L143.458 44.0156H136.348L134.188 40.3256C133.828 39.6956 133.468 39.0506 133.108 38.3906C132.778 37.7306 132.433 37.0856 132.073 36.4556H131.893C131.623 37.0856 131.338 37.7306 131.038 38.3906C130.738 39.0206 130.453 39.6656 130.183 40.3256L128.428 44.0156H121.588Z" fill="#0F5E7B"/>
<path d="M43.3812 39.5531H51.7313V32.3531C51.7313 31.4198 51.7646 30.3198 51.8313 29.0531C51.8979 27.7865 51.9479 26.6865 51.9813 25.7531H51.7813C51.3813 26.5865 50.9646 27.4031 50.5313 28.2031C50.0979 29.0031 49.6479 29.8365 49.1813 30.7031L43.3812 39.5531ZM51.7313 52.2031V44.0031H37.6813V40.1031L50.2813 20.4031H57.1313V39.5531H61.1313V44.0031H57.1313V52.2031H51.7313Z" fill="#0F5E7B"/>
<circle cx="152.933" cy="22.6714" r="1.5" fill="#FF6257"/>
<circle cx="170.013" cy="22.6714" r="1.5" fill="#FF6257"/>
<circle cx="161.473" cy="22.6714" r="1.5" fill="#FF6257"/>
<circle cx="152.933" cy="29.1714" r="1.5" fill="#FF6257"/>
<circle cx="170.013" cy="29.1714" r="1.5" fill="#FF6257"/>
<circle cx="161.473" cy="29.1714" r="1.5" fill="#FF6257"/>
<circle cx="152.933" cy="35.6714" r="1.5" fill="#FF6257"/>
<circle cx="170.013" cy="35.6714" r="1.5" fill="#FF6257"/>
<circle cx="161.473" cy="35.6714" r="1.5" fill="#FF6257"/>
<circle cx="152.933" cy="42.1714" r="1.5" fill="#FF6257"/>
<circle cx="170.013" cy="42.1714" r="1.5" fill="#FF6257"/>
<circle cx="161.473" cy="42.1714" r="1.5" fill="#FF6257"/>
</svg>
