<?xml version="1.0" encoding="UTF-8" standalone="no"?>
<svg
   id="logo-header"
   viewBox="0 0 300 109.375"
   width="300"
   height="109.375"
   version="1.1"
   sodipodi:docname="gispro_logo.svg"
   inkscape:version="1.2.1 (8a69933317, 2022-10-28, custom)"
   xmlns:inkscape="http://www.inkscape.org/namespaces/inkscape"
   xmlns:sodipodi="http://sodipodi.sourceforge.net/DTD/sodipodi-0.dtd"
   xmlns="http://www.w3.org/2000/svg"
   xmlns:svg="http://www.w3.org/2000/svg"
   xmlns:rdf="http://www.w3.org/1999/02/22-rdf-syntax-ns#"
   xmlns:cc="http://creativecommons.org/ns#"
   xmlns:dc="http://purl.org/dc/elements/1.1/">
  <metadata
     id="metadata871">
    <rdf:RDF>
      <cc:Work
         rdf:about="">
        <dc:format>image/svg+xml</dc:format>
        <dc:type
           rdf:resource="http://purl.org/dc/dcmitype/StillImage" />
      </cc:Work>
    </rdf:RDF>
  </metadata>
  <defs
     id="defs869" />
  <sodipodi:namedview
     pagecolor="#ffffff"
     bordercolor="#666666"
     borderopacity="1"
     objecttolerance="10"
     gridtolerance="10"
     guidetolerance="10"
     inkscape:pageopacity="0"
     inkscape:pageshadow="2"
     inkscape:window-width="1848"
     inkscape:window-height="1136"
     id="namedview867"
     showgrid="false"
     inkscape:zoom="3.0416668"
     inkscape:cx="146.79452"
     inkscape:cy="50.136985"
     inkscape:window-x="972"
     inkscape:window-y="1107"
     inkscape:window-maximized="1"
     inkscape:current-layer="logo-header"
     inkscape:showpageshadow="2"
     inkscape:pagecheckerboard="0"
     inkscape:deskcolor="#d1d1d1" />
  <path
     d="M 281.38415,80.051592 V 67.960275 h 2.38267 l 4.99586,10.0457 h 0.0715 v -10.0457 h 1.63561 v 12.091317 h -2.38265 l -4.99587,-10.099686 h -0.0714 V 80.051592 Z M 265.57367,67.960275 h -1.68961 v 12.091317 h 1.68961 z m -15.90824,0 h -1.68961 v 12.091317 h 1.68961 z M 225.87529,80.051592 V 67.960275 h 8.02051 v 1.511597 h -6.33092 v 3.662266 h 5.51238 v 1.511597 h -5.51238 v 3.894259 h 6.33092 v 1.511598 z m -11.07582,0 V 67.960275 h 4.55231 c 0.64053,0 1.19206,0.07149 1.67209,0.213024 0.48003,0.142989 0.88858,0.373522 1.20811,0.656582 0.32099,0.303486 0.55153,0.6595 0.69451,1.085549 0.14154,0.445016 0.21304,0.942559 0.21304,1.511597 0,0.534019 -0.0715,1.014053 -0.19552,1.440102 a 2.7576431,2.7576431 0 0 1 -0.67555,1.120566 c -0.232,0.248042 -0.51651,0.445016 -0.81854,0.586546 -0.31954,0.160498 -0.71056,0.26701 -1.19061,0.320995 l 2.98673,5.156356 h -1.93765 l -2.82768,-5.103829 h -1.99163 v 5.103829 z m 1.68961,-6.543931 h 3.48572 c 0.44355,0 0.79957,-0.14153 1.0301,-0.408541 0.232,-0.267009 0.35601,-0.605513 0.35601,-0.977576 v -1.33505 c 0,-0.408539 -0.12401,-0.745585 -0.37352,-0.977577 -0.24803,-0.230533 -0.58654,-0.337045 -1.01259,-0.337045 h -3.48572 z m -12.39772,6.543931 V 67.960275 h 4.56981 c 0.72953,0 1.31607,0.07149 1.7611,0.195515 a 2.6423765,2.6423765 0 0 1 1.83113,1.902628 c 0.12402,0.480034 0.19552,1.012595 0.19552,1.581633 0,0.551528 -0.0715,1.085548 -0.23053,1.565583 -0.16051,0.497542 -0.42752,0.92505 -0.76456,1.262095 -0.67701,0.65804 -1.5831,0.977577 -2.77516,0.977577 h -2.89771 v 4.606286 z m 1.6896,-6.116424 h 3.53825 c 0.40854,0 0.72954,-0.142988 0.97757,-0.39249 a 1.3817397,1.3817397 0 0 0 0.37353,-0.995086 v -1.759639 c 0,-0.40854 -0.12403,-0.729535 -0.35456,-0.961527 -0.23199,-0.248042 -0.56903,-0.354554 -0.99654,-0.354554 h -3.53825 z m -29.63955,-4.464756 v -1.510137 h 8.90763 v 1.511597 h -3.60975 v 10.578261 h -1.68815 V 69.471872 h -3.60973 z m -15.60914,10.58118 4.17878,-12.091317 h 1.88512 l 4.19629,12.091317 h -1.77861 l -0.99654,-2.988177 h -4.74636 l -0.99655,2.988177 z m 3.18223,-4.374293 h 3.85924 l -1.88511,-5.831905 h -0.0715 z m -12.91569,-6.206887 v -1.510137 h 8.90908 v 1.511597 h -3.60973 v 10.578261 h -1.6896 V 69.471872 h -3.60975 z m -11.09331,10.58118 4.17878,-12.091317 h 1.88511 l 4.1963,12.091317 h -1.77861 L 147.192,77.063415 h -4.74782 l -0.99509,2.988177 z m 3.18369,-4.374293 h 3.85778 l -1.88366,-5.831905 h -0.0729 z m -13.89181,4.374293 V 67.960275 h 3.91177 c 1.83259,0 3.14721,0.497543 3.96575,1.492629 0.81709,1.014054 1.22562,2.525651 1.22562,4.5523 0,2.028108 -0.40853,3.538245 -1.22562,4.552299 -0.81707,0.996546 -2.13316,1.494089 -3.96575,1.494089 h -3.91031 z m 1.6896,-1.511598 h 2.22217 c 1.13808,0 1.97412,-0.231991 2.52419,-0.712025 0.53403,-0.480035 0.80249,-1.155585 0.80249,-2.044158 v -3.555755 c 0,-0.890033 -0.26846,-1.565583 -0.80249,-2.045617 -0.55007,-0.480034 -1.38611,-0.710567 -2.52419,-0.710567 h -2.22217 z M 268.289,74.008121 c 0,-0.944017 0.10651,-1.815083 0.30202,-2.579636 0.21449,-0.782061 0.51652,-1.440102 0.94257,-1.991631 a 3.9234403,3.9234403 0 0 1 1.60059,-1.279605 c 0.65805,-0.302027 1.44011,-0.462525 2.34765,-0.462525 0.90609,0 1.68815,0.160498 2.34618,0.462525 0.65805,0.28452 1.19206,0.729536 1.60061,1.279605 0.4275,0.551529 0.74704,1.211029 0.94255,1.991631 0.19552,0.764553 0.30203,1.635619 0.30203,2.578178 a 10.622033,10.622033 0 0 1 -0.30203,2.597144 5.2117995,5.2117995 0 0 1 -0.94255,1.972664 c -0.40855,0.551529 -0.94256,0.977578 -1.60061,1.298573 -0.65803,0.302027 -1.44009,0.445016 -2.34618,0.445016 -0.90754,0 -1.6896,-0.142989 -2.34765,-0.445016 a 4.2765353,4.2765353 0 0 1 -1.60059,-1.298573 c -0.42605,-0.532561 -0.72808,-1.20811 -0.94257,-1.972664 A 10.622033,10.622033 0 0 1 268.289,74.006663 Z m 1.86761,1.866152 c 0,0.462525 0.089,0.871064 0.24804,1.244587 0.17801,0.356013 0.41,0.67555 0.71203,0.92505 0.31953,0.265551 0.65804,0.462525 1.06657,0.604055 a 4.4063926,4.4063926 0 0 0 2.59569,0 3.1515921,3.1515921 0 0 0 1.06805,-0.604055 c 0.30203,-0.248042 0.53256,-0.569037 0.71056,-0.92505 0.16049,-0.373523 0.2495,-0.782062 0.2495,-1.244587 v -3.73522 c 0,-0.461067 -0.089,-0.869606 -0.2495,-1.225619 a 2.8743687,2.8743687 0 0 0 -1.77861,-1.529106 3.8884226,3.8884226 0 0 0 -1.29711,-0.213025 c -0.46252,0 -0.89003,0.07003 -1.29858,0.213025 a 2.8772869,2.8772869 0 0 0 -1.7786,1.529106 2.9765036,2.9765036 0 0 0 -0.24804,1.225619 z m -18.0239,0.65804 h 1.68961 c 0.089,0.81708 0.40853,1.405085 0.96006,1.759639 0.55154,0.373522 1.22709,0.55153 2.02666,0.55153 0.40999,0 0.78351,-0.03502 1.12056,-0.124021 0.3385,-0.08901 0.64053,-0.213026 0.88857,-0.373523 a 2.0281078,2.0281078 0 0 0 0.62302,-0.605514 c 0.14154,-0.248042 0.21303,-0.532561 0.21303,-0.852097 0,-0.53402 -0.14153,-0.925051 -0.42605,-1.227079 -0.30202,-0.302027 -0.76455,-0.534019 -1.40509,-0.712025 l -2.36515,-0.656582 c -0.99508,-0.285978 -1.72462,-0.694518 -2.20465,-1.246046 -0.48004,-0.532561 -0.71057,-1.262097 -0.71057,-2.15067 0,-0.462525 0.0876,-0.871066 0.28452,-1.263555 0.19551,-0.391031 0.48004,-0.729536 0.8521,-1.012595 a 4.187532,4.187532 0 0 1 1.31608,-0.67555 c 0.49754,-0.160498 1.06657,-0.248042 1.6896,-0.248042 0.58655,0 1.12057,0.07003 1.63562,0.211565 0.49754,0.12548 0.94256,0.338504 1.31608,0.640533 0.39104,0.284518 0.71057,0.65804 0.94256,1.103056 0.24805,0.443558 0.40854,0.977578 0.46253,1.599142 h -1.6896 c -0.0351,-0.40854 -0.12403,-0.745585 -0.28453,-1.012596 a 2.1375382,2.1375382 0 0 0 -0.62302,-0.640531 2.0689618,2.0689618 0 0 0 -0.81707,-0.320995 3.9205221,3.9205221 0 0 0 -0.94257,-0.105056 c -0.76455,0 -1.36861,0.160498 -1.81362,0.461067 a 1.4576113,1.4576113 0 0 0 -0.67555,1.263555 c 0,0.569037 0.1605,0.977577 0.46253,1.262095 0.30202,0.26701 0.79956,0.497543 1.47512,0.693058 l 1.9391,0.534021 c 0.51505,0.14153 0.97758,0.302027 1.38612,0.497543 0.4275,0.195515 0.76454,0.426048 1.04907,0.693058 0.26701,0.284518 0.48003,0.605515 0.62302,0.977578 0.14152,0.356013 0.21303,0.801029 0.21303,1.298572 0,0.53402 -0.12403,1.014054 -0.37352,1.440102 -0.23055,0.427508 -0.56904,0.782062 -0.96008,1.085549 a 4.5085275,4.5085275 0 0 1 -1.4401,0.693058 c -0.55153,0.178007 -1.12057,0.248042 -1.72462,0.248042 a 6.8284495,6.8284495 0 0 1 -1.72462,-0.213024 4.4355741,4.4355741 0 0 1 -1.45908,-0.693058 3.5280323,3.5280323 0 0 1 -1.04907,-1.173093 3.9248994,3.9248994 0 0 1 -0.48003,-1.707113 z M 236.0202,74.114634 c 0,-0.977577 0.10651,-1.867611 0.30202,-2.66864 0.21302,-0.782062 0.51505,-1.457611 0.9236,-2.026649 0.41,-0.551528 0.94256,-0.977576 1.56558,-1.279605 0.62156,-0.302027 1.3686,-0.445016 2.20465,-0.445016 0.56904,0 1.12057,0.08901 1.61811,0.26701 a 3.773156,3.773156 0 0 1 2.25865,1.902628 c 0.23053,0.445017 0.35454,0.960069 0.39102,1.529106 h -1.6896 c -0.089,-0.712027 -0.35601,-1.262097 -0.83604,-1.635618 -0.48003,-0.391031 -1.1016,-0.586547 -1.90264,-0.586547 -0.42604,0 -0.81707,0.07003 -1.19059,0.230534 a 2.7634793,2.7634793 0 0 0 -0.94257,0.604055 c -0.26701,0.267009 -0.46251,0.569037 -0.62302,0.94256 a 3.1749372,3.1749372 0 0 0 -0.21303,1.192059 v 3.733762 c 0,0.426048 0.0715,0.817079 0.232,1.190602 a 3.0523753,3.0523753 0 0 0 1.65313,1.564123 c 0.37352,0.142988 0.76455,0.214484 1.1906,0.214484 0.80103,0 1.45907,-0.178008 1.95661,-0.534021 0.49754,-0.372063 0.78207,-0.960068 0.87107,-1.777148 h 1.6896 c -0.0365,0.569038 -0.178,1.08409 -0.4275,1.546615 a 3.5134416,3.5134416 0 0 1 -0.96008,1.20957 4.7419788,4.7419788 0 0 1 -1.38611,0.764552 5.4773503,5.4773503 0 0 1 -1.72462,0.26701 c -0.80104,0 -1.5116,-0.142989 -2.13462,-0.445016 a 3.9132268,3.9132268 0 0 1 -1.54662,-1.244588 c -0.40854,-0.551528 -0.72953,-1.192059 -0.94256,-1.955153 -0.23053,-0.766012 -0.33704,-1.619568 -0.33704,-2.560669 z m -49.53836,-0.106512 c 0,-0.944017 0.10651,-1.815083 0.30203,-2.579636 0.21302,-0.782061 0.51504,-1.440102 0.94256,-1.991631 0.40853,-0.550069 0.94256,-0.995085 1.60059,-1.279605 0.65805,-0.302027 1.44011,-0.462525 2.34619,-0.462525 0.90755,0 1.68961,0.160498 2.34764,0.462525 0.65805,0.28452 1.19061,0.729536 1.6006,1.279605 0.42605,0.551529 0.74704,1.211029 0.94256,1.991631 0.19552,0.764553 0.30203,1.635619 0.30203,2.578178 a 10.622033,10.622033 0 0 1 -0.30203,2.597145 5.2336855,5.2336855 0 0 1 -0.94256,1.972663 c -0.40999,0.551529 -0.94255,0.977578 -1.6006,1.298573 -0.65803,0.302027 -1.44009,0.445016 -2.34764,0.445016 -0.90608,0 -1.68814,-0.142989 -2.34619,-0.445016 a 4.2648628,4.2648628 0 0 1 -1.60059,-1.298573 c -0.42752,-0.532561 -0.72954,-1.20811 -0.94256,-1.972663 a 10.622033,10.622033 0 0 1 -0.30203,-2.597145 z m 1.86614,1.866152 c 0,0.462526 0.089,0.871065 0.24951,1.244587 0.17801,0.356013 0.40854,0.67555 0.71057,0.92505 0.32099,0.265551 0.65804,0.462526 1.06804,0.604055 a 4.3976382,4.3976382 0 0 0 2.59568,0 c 0.40854,-0.141529 0.76456,-0.338504 1.06659,-0.604055 0.30202,-0.248042 0.53401,-0.569037 0.71202,-0.92505 0.15904,-0.373522 0.24804,-0.782061 0.24804,-1.244587 v -3.73522 a 2.9765036,2.9765036 0 0 0 -0.24804,-1.225619 2.8772869,2.8772869 0 0 0 -1.77861,-1.529106 3.8971771,3.8971771 0 0 0 -1.29857,-0.213025 c -0.46253,0 -0.88858,0.07003 -1.29711,0.213025 -0.41,0.124021 -0.74705,0.320995 -1.06804,0.586546 a 2.8743687,2.8743687 0 0 0 -0.71057,0.94256 c -0.1605,0.356013 -0.24951,0.764552 -0.24951,1.225619 z M 237.70396,58.60034 V 28.966619 h 12.07089 c 3.13847,0 5.49195,0.741208 7.01667,2.223624 1.52473,1.524728 2.26594,3.790665 2.26594,6.929126 0,2.353479 -0.56612,4.226927 -1.65605,5.664111 -1.13224,1.438643 -2.7022,2.397252 -4.7055,2.963372 l 6.79781,11.853488 h -6.27546 l -6.23169,-11.373455 h -3.61703 v 11.373454 z m 5.66558,-16.035184 h 7.14652 c 1.78736,0 2.65843,-1.00384 2.65843,-2.964831 v -3.049458 c 0,-1.002381 -0.2174,-1.699816 -0.56613,-2.136078 -0.39248,-0.436263 -1.08991,-0.653664 -2.0923,-0.653664 h -7.14652 v 8.802572 z M 211.0876,58.60034 V 28.966619 h 12.07089 c 3.13846,0 5.49194,0.741208 7.01667,2.267396 1.52473,1.524728 2.26594,3.965753 2.26594,7.234071 0,3.137002 -0.82729,5.490482 -2.52712,7.102755 -1.69981,1.612273 -3.92198,2.397252 -6.71172,2.397252 h -6.44908 V 58.60034 Z m 5.66558,-15.426752 h 7.01666 c 1.00092,0 1.69836,-0.261174 2.13462,-0.741208 0.43626,-0.478575 0.65367,-1.219783 0.65367,-2.222164 v -3.660807 c 0,-1.000923 -0.21741,-1.698358 -0.6099,-2.13462 -0.39248,-0.436263 -1.1337,-0.653664 -2.17839,-0.653664 h -7.01666 z m -51.04412,-14.20697 h -5.66411 v 29.633721 h 5.66411 z m 98.35447,14.821237 c 0,-5.055678 1.1337,-8.933888 3.44341,-11.548542 2.30971,-2.614653 5.53425,-3.921981 9.76118,-3.921981 4.22692,0 7.45147,1.307328 9.76118,3.921981 2.30971,2.614654 3.44341,6.492864 3.44341,11.548542 0,5.097993 -1.1337,8.933889 -3.44341,11.548543 -2.30971,2.614655 -5.53426,3.921981 -9.76118,3.921981 -4.22693,0 -7.45147,-1.307326 -9.76118,-3.921981 -2.30971,-2.614654 -3.44341,-6.449091 -3.44341,-11.548543 z m 6.10183,4.575645 c 0,1.002382 0.17363,1.873446 0.56613,2.614654 0.39248,0.741209 0.91483,1.394872 1.52472,1.917219 a 6.799268,6.799268 0 0 0 2.22362,1.176011 c 0.87107,0.262632 1.7859,0.393949 2.78829,0.393949 1.00238,0 1.91722,-0.131317 2.78974,-0.393949 a 6.8051044,6.8051044 0 0 0 2.22217,-1.176011 c 0.65365,-0.522347 1.13223,-1.17601 1.52472,-1.917219 0.3925,-0.741208 0.56612,-1.612272 0.56612,-2.614654 v -9.151289 c 0,-1.002382 -0.17362,-1.873446 -0.56612,-2.614655 -0.39249,-0.741208 -0.87107,-1.394871 -1.52472,-1.917218 a 6.8051044,6.8051044 0 0 0 -2.22217,-1.17747 9.596306,9.596306 0 0 0 -2.78974,-0.39103 c -1.00239,0 -1.91722,0.131316 -2.78829,0.39103 a 6.799268,6.799268 0 0 0 -2.22362,1.17747 6.5979163,6.5979163 0 0 0 -1.52472,1.917218 c -0.3925,0.741209 -0.56613,1.612273 -0.56613,2.614655 z m -98.93373,1.394871 h 5.66558 c 0.2174,1.742131 0.87106,2.961913 2.00476,3.746893 1.08846,0.741208 2.5271,1.089926 4.2707,1.089926 1.65604,0 3.04945,-0.348718 4.18315,-1.002381 1.13224,-0.697436 1.69981,-1.699817 1.69981,-3.005686 0,-1.047612 -0.30494,-1.874904 -0.9586,-2.528569 -0.65366,-0.609891 -1.65605,-1.089924 -3.00715,-1.438643 L 179.293,45.095182 c -2.43956,-0.653663 -4.22693,-1.699816 -5.40294,-3.137001 -1.21978,-1.438643 -1.78736,-3.268318 -1.78736,-5.448168 0,-1.176011 0.26263,-2.265937 0.78498,-3.31209 0.48004,-1.002382 1.21978,-1.829674 2.13608,-2.570883 0.91484,-0.741208 2.04708,-1.307326 3.39817,-1.699817 a 15.968067,15.968067 0 0 1 4.48811,-0.609891 c 1.52618,0 2.92106,0.175088 4.18461,0.523807 1.30733,0.348718 2.43956,0.871064 3.39817,1.612272 a 8.640615,8.640615 0 0 1 2.35349,2.788284 c 0.60988,1.133698 1.00238,2.484796 1.1337,4.009525 h -5.66558 a 5.4102331,5.4102331 0 0 0 -0.60989,-2.048535 4.7230109,4.7230109 0 0 0 -1.26356,-1.351099 c -0.48003,-0.304945 -1.04614,-0.566119 -1.65604,-0.653663 a 10.010682,10.010682 0 0 0 -1.96099,-0.218861 c -1.56996,0 -2.78975,0.306405 -3.70457,0.960068 -0.91484,0.609892 -1.35111,1.438643 -1.35111,2.52711 0,1.133699 0.34872,2.004763 1.04615,2.614654 0.69744,0.567579 1.7436,1.046154 3.18078,1.438644 l 5.05568,1.307327 c 2.52711,0.697436 4.44433,1.699817 5.70788,3.049457 1.30733,1.308786 1.96099,3.224546 1.96099,5.66557 0,1.3511 -0.26117,2.570883 -0.8273,3.662267 a 7.9139978,7.9139978 0 0 1 -2.35347,2.743052 c -1.00238,0.741208 -2.22216,1.308787 -3.61704,1.701277 -1.43719,0.434803 -2.96337,0.609891 -4.66319,0.609891 -1.65604,0 -3.18077,-0.175088 -4.61942,-0.523806 -1.3934,-0.348717 -2.61465,-0.871065 -3.70311,-1.656045 a 8.5136758,8.5136758 0 0 1 -2.57089,-2.961913 c -0.65366,-1.177469 -1.00238,-2.658426 -1.1337,-4.358244 z M 128.99009,43.8754 c 0,-2.35348 0.26117,-4.48956 0.78352,-6.405319 0.5238,-1.918677 1.30732,-3.530951 2.35348,-4.882049 1.08993,-1.3511 2.43956,-2.439566 4.0533,-3.137003 1.61227,-0.741207 3.52949,-1.133697 5.75165,-1.133697 1.5685,0 3.00569,0.218861 4.35824,0.653663 1.30733,0.436262 2.43958,1.046154 3.44341,1.917219 a 9.2534245,9.2534245 0 0 1 2.30825,3.007144 c 0.60989,1.176011 0.95861,2.484798 1.04615,3.921981 h -5.66702 c -0.30495,-3.137001 -2.30971,-4.706961 -5.88298,-4.706961 -1.91722,0 -3.48718,0.567578 -4.66319,1.657504 -1.21978,1.132239 -1.78589,2.613195 -1.78589,4.444329 v 9.063745 c 0,0.914838 0.17508,1.743589 0.47856,2.484798 0.35018,0.739748 0.78499,1.393412 1.39488,1.96099 0.56612,0.566119 1.26355,0.958609 2.04853,1.263554 a 7.0998366,7.0998366 0 0 0 2.57089,0.478575 c 1.91722,0 3.44341,-0.478575 4.57564,-1.437184 1.17601,-0.958609 1.74359,-2.484797 1.74359,-4.533332 v -1.263555 h -6.10184 v -4.793045 h 11.76595 v 16.166499 h -5.27308 l -0.13131,-2.700738 c -1.52328,2.222164 -3.87676,3.355861 -7.10131,3.355861 -2.00475,0 -3.74834,-0.393949 -5.27307,-1.133697 a 11.118116,11.118116 0 0 1 -3.74836,-3.224546 c -1.04615,-1.351099 -1.78589,-2.963372 -2.26593,-4.880591 -0.52235,-1.873446 -0.78353,-3.921981 -0.78353,-6.144145 z"
     id="path844"
     style="stroke-width:1.45907" />
  <path
     d="m 61.540171,105.39273 c 28.203832,0 51.067479,-22.863637 51.067479,-51.067468 0,-28.203831 -22.863647,-51.0674644 -51.067479,-51.0674644 -28.203831,0 -51.067464,22.8636334 -51.067464,51.0674644 0,28.203831 22.863633,51.067468 51.067464,51.067468 z"
     fill="#bf4444"
     id="path846"
     style="stroke-width:1.45907" />
  <path
     d="m 112.61056,54.329639 c 0,-4.149597 -0.49608,-8.227698 -1.45469,-12.092775 L 76.685322,18.154907 h -9.256343 l -1.383198,8.086168 -12.695372,2.766397 11.099148,17.341052 -31.92446,16.312407 1.247505,2.694904 -2.969208,1.695439 L 81.544026,101.319 C 99.807216,93.552369 112.61056,75.430715 112.61056,54.329639 Z"
     fill="#a83a3a"
     id="path848"
     style="stroke-width:1.45907" />
  <path
     d="M 61.683161,84.650582 32.16033,66.275049 30.79464,67.060029 61.683161,86.281822 92.856204,67.273053 91.473,66.49245 Z"
     fill="#bdbdbd"
     id="path850"
     style="stroke-width:1.45907" />
  <path
     d="M 61.891808,80.956215 32.528016,62.656554 30.896775,63.578686 61.785295,82.800481 92.958339,63.791711 91.470083,62.941072 61.890348,80.956215 Z"
     fill="#e0e1e0"
     id="path852"
     style="stroke-width:1.45907" />
  <path
     d="M 62.069814,42.411952 30.896775,59.967487 61.785295,79.187822 92.958339,60.179053 Z m -0.07149,26.668889 c -9.823922,0 -17.7671,-3.68853 -17.7671,-8.227698 0,-4.537709 7.943178,-8.226239 17.7671,-8.226239 9.823921,0 17.767101,3.68853 17.767101,8.226239 0,4.540627 -7.978198,8.229157 -17.767101,8.229157 z"
     fill="#f5f6f6"
     id="path854"
     style="stroke-width:1.45907" />
  <path
     d="m 61.438036,68.828422 c 11.806798,0 21.379759,-9.571502 21.379759,-21.379759 0,-11.808256 -9.571502,-21.379758 -21.381218,-21.379758 -11.806798,0 -21.379758,9.571502 -21.379758,21.379758 0,11.808257 9.571502,21.379759 21.381217,21.379759 z"
     fill="#ffffff"
     id="path856"
     style="stroke-width:1.45907" />
  <path
     d="m 80.146237,56.271662 c -0.67409,0.319537 -0.354554,0.852097 -0.992168,1.241669 -0.604055,0.354554 -0.356013,0.496084 -0.569037,1.348181 -0.176548,0.850639 0.07149,1.346722 0.496084,0.674091 0.426048,-0.674091 1.774229,-3.618495 1.065121,-3.263941 z M 46.786051,31.819101 c 0.332668,0.213024 0.468362,0.450853 0.02918,0.612809 -0.199893,0.07441 -0.459608,0.08754 -0.738289,0.08463 a 21.448335,21.448335 0 0 0 -3.627249,5.026498 c 0.08463,0.730994 0.215942,1.275227 0.0029,1.80487 -0.354554,0.852097 -0.81562,2.411842 -0.42459,3.440487 0.354554,1.065121 0.922133,3.333976 1.418217,3.405471 0.496084,0.07003 -0.354554,-2.446862 0.106512,-1.666259 0.496084,0.814162 0.496084,1.984336 1.346722,2.801416 0.852097,0.81562 2.022271,0.709108 2.944404,1.488251 0.922132,0.81708 1.844265,1.987254 2.694903,1.845725 0,0 -0.07003,0.602595 -0.496084,1.666258 -0.426048,1.065121 -0.496084,2.268855 0.07149,3.01444 0.567579,0.744126 1.09868,1.844265 1.594764,2.411842 0.496084,0.567579 0.852097,3.511983 0.745585,5.000235 -0.07879,1.105975 0.272846,3.205577 1.08263,4.5202 0.350177,0.138612 0.703272,0.268469 1.060745,0.389572 a 2.6584263,2.6584263 0 0 1 -0.370588,-0.653665 c -0.318078,-0.923591 0.248042,-3.085934 0.993627,-3.405471 0.744125,-0.319536 1.418215,-1.524727 1.985794,-2.411842 0.569038,-0.852097 1.987254,-1.241669 2.411843,-2.270314 0.426049,-1.065121 0.248042,-2.270314 0.496084,-2.837892 0.248043,-0.567578 0.923592,-1.772771 -0.566119,-2.518356 -1.489711,-0.744125 -2.093766,-0.354554 -2.163802,-1.063661 -0.07149,-0.674091 -0.426048,-1.418217 -1.48971,-1.736295 -1.065121,-0.320995 -1.985795,-0.923591 -3.157428,-1.030103 -1.170175,-0.14153 -1.418217,0.780603 -2.020813,0.284518 -0.602597,-0.496084 -1.100139,-0.992168 -1.348181,-1.596223 -0.248042,-0.602596 -0.992168,-0.248042 -0.922133,-0.602596 0.07149,-0.354554 1.065122,-1.418216 -0.07149,-1.065121 -1.098681,0.356013 -2.092308,0.249501 -2.020813,-0.744126 0.07149,-0.992168 1.418216,-1.346722 1.985795,-1.488252 0.567578,-0.106512 0.992168,0.567579 1.667717,0.992168 0.674091,0.426049 0.07003,-0.602596 0.42459,-1.346722 0.354553,-0.744126 1.77423,-0.67409 1.987254,-1.737753 0.176547,-1.065121 -0.07296,-1.91576 1.063662,-2.022272 1.09868,-0.105056 2.270313,0.0715 2.411843,-0.496084 0.106512,-0.567577 -1.276687,0.176548 -1.348181,-0.496083 -0.07003,-0.67409 1.241669,-1.596223 1.596223,-0.922132 0.354554,0.67409 1.276687,0.744126 1.418217,0.496084 0.106512,-0.248042 0,-0.674091 -0.42459,-1.737753 -0.426048,-1.065122 -0.852097,-0.744127 -1.241669,-1.91576 -0.354554,-1.170175 -0.992168,0.07149 -1.596223,-0.567578 -0.602596,-0.602597 -1.348181,-1.914301 -1.488251,-0.814162 -0.107968,1.09868 -0.107968,1.736294 -0.675551,2.588391 -0.567577,0.850638 -0.815619,0.176548 -1.276685,-0.354554 -0.496084,-0.567578 -1.596224,-1.09868 -1.240211,-1.596223 0.354555,-0.496084 0.744127,-1.77277 1.276687,-1.418217 0.56612,0.354554 1.418217,0.354554 1.275227,-0.248041 -0.105056,-0.602596 0,-0.850638 0.248042,-1.170175 0.248042,-0.320996 1.100139,-0.852097 1.100139,0.248042 0,1.09868 -0.105056,1.418216 0.745585,1.524728 0.850638,0.106512 1.844265,0.176548 1.772771,-0.354554 -0.07003,-0.567577 0.248042,-0.426048 0,-1.34818 -0.248042,-0.922133 -0.992168,-0.992168 -1.772771,-1.418217 -0.817079,-0.426048 -1.241669,-1.09868 -1.915758,-0.850638 -0.674091,0.248042 -0.744126,0.496084 -0.815621,1.170175 -0.07149,0.67409 -0.426048,0.922132 -0.67409,0.602596 -0.248042,-0.320996 0.07149,-1.276687 -0.850639,-0.674091 -0.922132,0.602597 -1.276686,1.666258 -1.774229,0.922133 -0.192598,-0.290356 -0.122563,-0.660959 -0.04231,-0.973201 -0.48587,0.383736 -0.954232,0.787899 -1.405084,1.211029 z"
     fill="#bf4444"
     id="path858"
     style="stroke-width:1.45907" />
  <path
     d="m 50.31992,46.233258 c -0.389572,0.637614 -0.176548,0.67409 0.248042,0.81562 0.426049,0.106512 -0.176548,0.850638 0.320995,0.922133 0.496084,0.07003 1.594765,0.353094 1.914301,0 0.318077,-0.354554 -0.496084,-0.213024 -1.065121,-0.639074 -0.56612,-0.424589 -1.133698,-1.561204 -1.418217,-1.098679 z m 0.21886,-16.526891 c 0.602596,-0.602596 0.992168,-1.348181 1.418217,-1.065121 0.426048,0.320995 1.170175,0.214483 1.489711,0.214483 0.319536,-0.03502 0.354554,-0.95715 1.240209,-0.817079 0.852097,0.106512 0.569038,-0.175088 1.49117,-0.672632 0.637614,-0.34434 1.784444,-0.857933 1.747966,-1.057826 a 21.248442,21.248442 0 0 0 -8.178089,3.183692 c 0.06565,0.466902 0.2816,0.723699 0.790816,0.214483 z m 6.557062,-2.515437 c -0.744125,0.637614 -1.844264,1.524729 -0.992167,1.524729 0.850637,0 1.275227,-0.461067 1.736294,0.14153 0.462525,0.602595 0.284518,1.524727 0.284518,1.950776 0,0.42459 -0.248042,1.418217 0.354554,2.659886 0.602597,1.24021 0.674091,2.020813 1.276687,1.24021 0.602596,-0.814162 2.092307,-2.340349 2.837892,-2.446861 0.744125,-0.105056 1.488252,-0.42459 1.844265,-1.063663 0.354555,-0.602596 0,-1.205192 0.602596,-1.666259 0.602596,-0.461065 0.496084,-0.992167 0.67409,-1.666258 0.178008,-0.67409 1.844265,-0.67409 1.098681,-1.065121 -0.744127,-0.354554 -2.092308,-0.602596 -3.68853,-0.42459 -1.524729,0.213025 -4.680698,-0.354554 -6.02888,0.815621 z m 25.113521,18.718414 c 0.185302,0.148825 0.383736,0.291815 0.574874,0.402704 A 21.293673,21.293673 0 0 0 77.77087,33.613758 c -0.612809,0.404162 -1.546614,0.315159 -1.413838,-0.151743 0.106512,-0.496084 0.922132,-0.356014 -0.42459,-1.278147 -1.348181,-0.922131 -1.597682,-1.736293 -2.661345,-0.567577 -1.065121,1.171633 -1.276686,2.1638 -1.915759,2.448319 -0.602596,0.318078 -1.098681,1.276687 -0.42459,1.524729 0.674091,0.248042 0.744126,0 1.276687,0.496084 0.567578,0.496084 1.276687,0.354554 1.418216,0.07149 0.106512,-0.320996 0.248043,-1.276687 0.319537,-1.667717 0.07003,-0.354554 0.67409,-1.594765 0.639073,-0.602596 -0.07149,0.992168 0.850638,0.992168 0.248042,1.666257 -0.604055,0.674091 -0.248042,1.241669 -1.489711,1.348181 -1.241669,0.106512 -1.276687,-0.602595 -1.985795,-0.248042 -0.674091,0.354555 -0.604055,0.602597 -0.852098,0.992169 -0.248042,0.354554 -1.526187,1.100139 -1.526187,1.100139 0,0 -1.063663,-0.354555 -0.567579,0.319536 0.496085,0.672632 0.923592,1.488252 0.496085,1.524729 -0.42459,0.07003 -1.594764,-0.602596 -1.594764,0.106512 0,0.744126 -0.178007,1.523269 0.319537,1.736293 0.354554,0.14299 0.567578,0.426049 0.885655,0.391032 a 1.429889,1.429889 0 0 0 -0.637613,0.496083 c -0.496085,0.639073 -0.176548,1.737753 -1.170175,2.092307 -0.992168,0.354555 -0.992168,0.81708 -1.170175,1.596224 -0.178006,0.817079 0,2.836432 0.248042,3.014438 0.248042,0.178008 0.674091,1.736295 1.736294,1.596224 1.065121,-0.106512 2.16526,-0.178007 2.519814,0 0.354554,0.176547 0.992168,-0.389571 1.170175,1.028644 0.178006,1.418217 0.602596,1.596223 0.852097,2.34035 0.248042,0.744126 -0.106512,2.270313 0,3.192446 0.105056,0.922133 0.992168,2.518355 0.992168,3.333975 0,0.817079 0.922133,1.170175 1.419676,0.852097 0.496084,-0.320995 1.524728,-0.923591 1.985795,-1.915759 0.426048,-0.992168 0.426048,-1.48971 1.098679,-2.766397 0.674091,-1.278146 0.497544,-2.235296 0.81708,-3.192446 0.318077,-0.992169 1.063662,-1.667718 2.057289,-2.766398 1.028644,-1.100139 0.81562,-1.737752 0,-1.667718 -0.81708,0.07149 -1.384658,-0.744125 -1.809248,-1.736293 -0.426048,-0.993627 -0.922131,-3.440489 -0.567577,-2.661345 0.354553,0.81708 1.098679,3.015899 1.844264,3.405471 0.744126,0.354554 2.092307,-0.637614 2.411844,-0.992168 0.319536,-0.354554 0.178006,-1.419676 -0.602597,-1.844265 -0.817079,-0.426049 -0.320995,-0.81708 0.496085,-0.319537 z m -5.106747,-2.623409 c -0.07296,0.496084 0.175088,1.276687 -1.171633,0.992168 -1.348181,-0.318077 -1.348181,-1.063662 -1.91576,-0.496084 -0.567578,0.567579 -1.24021,1.065121 -2.020812,0.178007 -0.81708,-0.852097 -0.674091,-1.100139 -1.10014,-1.171634 -0.318077,-0.03502 -1.348181,-0.28306 -2.198819,-0.03502 0.07003,-0.03502 0.14153,-0.106512 0.211566,-0.176547 0.604055,-0.567579 0.497542,-0.744126 1.171633,-1.348181 0.674091,-0.602597 1.170175,-1.170175 1.667717,-0.602597 0.496085,0.569039 1.524729,0.674091 1.170175,1.276687 -0.354554,0.602596 -0.106512,0.992168 0.319537,0.602596 0.424589,-0.354554 1.063662,-0.602596 0.602596,-1.09868 -0.426049,-0.496084 -0.852097,-1.77423 -0.248042,-0.922133 0.602596,0.850639 0.81562,1.276687 1.170174,1.772771 0.354555,0.496084 0.744127,0.815621 0.850639,0.496084 0.106512,-0.318077 -0.07003,-0.992168 0.106512,-1.09868 0.178006,-0.106512 0,1.063663 0.569037,1.09868 0.602596,0.07149 0.885656,0.03502 0.814161,0.532561 z m 1.418216,-2.128784 c -0.426048,-0.248042 -1.241668,0 -2.235296,0.319537 -0.992167,0.319536 -0.213023,-0.674091 0.248042,-1.34818 0.391032,-0.602597 0.178008,0.178006 1.065123,0.248041 0.885655,0.07296 1.383197,1.028644 0.922131,0.780602 z m 2.162343,1.91576 c -0.176548,0.176548 -0.496084,-0.852097 -0.672632,-1.348181 -0.178006,-0.496083 -0.178006,-1.348181 0.354554,-1.809248 0.639073,-0.602595 0.354555,0.780603 0.354555,1.526189 -0.03648,0.709107 0.141529,1.453233 -0.03648,1.63124 z"
     fill="#bf4444"
     id="path860"
     style="stroke-width:1.45907" />
  <path
     d="m 68.799047,35.558698 c -0.389572,0.106512 -0.672632,0.852097 -0.496084,1.241669 0.178006,0.354554 -0.176548,-0.176547 -0.674091,0.106512 -0.496084,0.319537 -1.24021,1.170175 -0.56612,1.240211 0.672632,0.07296 0.567579,-0.496085 1.170175,-0.248042 0.602596,0.248042 1.276687,0.178006 1.276687,-0.42459 0,-0.602596 -0.106512,-2.092306 -0.710567,-1.91576 z M 64.79098,32.752906 c -0.354554,0.03502 -0.496084,0.992168 0.320996,1.09868 0.814161,0.106512 2.232377,-0.176547 1.701276,-0.674091 -0.532561,-0.496083 -1.170175,-0.567577 -2.022272,-0.424589 z"
     fill="#bf4444"
     id="path862"
     style="stroke-width:1.45907" />
  <path
     d="m 71.966688,15.992564 a 7.7476638,7.7476638 0 0 0 -7.731614,7.731614 c 0,1.950778 0.710567,3.723548 1.91576,5.07173 l 5.815854,10.603064 5.815855,-10.568047 a 7.6426108,7.6426108 0 0 0 1.915759,-5.106747 7.7257778,7.7257778 0 0 0 -7.731614,-7.731614 z m 0,11.06559 a 3.3295986,3.3295986 0 0 1 -3.333976,-3.333976 3.3295986,3.3295986 0 0 1 3.333976,-3.333975 3.3295986,3.3295986 0 0 1 3.333977,3.333975 3.3295986,3.3295986 0 0 1 -3.333977,3.333976 z"
     fill="#ffffff"
     stroke="#ef4523"
     stroke-width="0.00145907"
     stroke-miterlimit="10"
     id="path864" />
</svg>
