<svg width="763" height="184" viewBox="0 0 763 184" fill="none" xmlns="http://www.w3.org/2000/svg">
<g clip-path="url(#clip0_151_3)">
<path d="M274.194 36.7149C274.055 36.7614 273.915 36.7614 273.776 36.8545C271.449 38.2036 268.891 38.7619 266.285 39.3202C264.89 39.6459 263.447 39.832 262.005 40.0646C261.168 40.2042 261.586 41.4138 260.749 41.5533C260.237 41.6463 259.632 42.7164 259.167 42.9025C259.307 42.7164 257.772 41.4603 257.679 41.1346C257.446 42.3442 257.725 43.5538 256.701 44.2517C254.701 45.6009 253.538 47.3222 251.537 48.6714C249.863 49.788 247.816 50.9976 246.234 52.2072C245.768 52.5794 243.675 52.3933 243.721 52.9051C243.814 53.789 244.745 53.9286 245.536 53.7425C246.373 53.5564 247.211 53.2772 247.955 52.9051C249.77 51.9746 251.63 51.4628 253.724 51.5559C254.515 51.6024 255.306 51.3233 256.097 51.1372C257.632 50.7185 259.121 50.2067 260.656 49.7415C261.075 49.6019 261.493 49.4623 261.866 49.2762C262.889 48.7179 263.029 47.5549 262.284 46.7174C262.005 46.4383 261.68 46.1592 261.54 45.8335C261.354 45.4613 261.168 44.8565 261.307 44.6704C261.633 44.3913 262.238 44.1587 262.657 44.2517C263.68 44.5308 264.657 44.9496 265.634 45.4148C267.867 46.3918 269.495 46.1592 271.217 44.5308C271.822 43.9726 272.473 43.5073 272.938 42.856C274.008 41.5068 275.032 40.1576 275.916 38.6689C276.148 38.2502 276.055 37.5058 275.823 37.0406C275.544 36.4358 274.799 36.4823 274.194 36.7149" fill="black"/>
<path d="M242.093 122.876C239.674 121.899 237.348 120.783 234.975 119.713C234.045 119.294 233.068 118.875 232.091 118.503C231.021 118.084 229.904 118.131 228.881 118.689C228.136 119.108 227.345 119.527 226.601 119.945C225.67 120.457 225.112 121.155 224.926 122.132C224.6 123.807 224.414 125.528 223.856 127.156C222.321 131.855 220.646 136.554 219.018 141.253C218.366 143.16 217.622 145.068 216.878 146.929C216.459 147.999 216.04 149.209 215.249 149.999C214.086 151.116 213.156 152.279 212.411 153.628C210.411 157.211 206.689 157.722 203.293 156.187C201.432 155.303 199.757 154.093 197.989 152.977C197.338 152.558 196.733 152.139 196.221 151.628C195.291 150.744 195.291 149.767 196.268 148.883C196.64 148.511 197.152 148.278 197.617 147.952C199.012 146.975 200.315 145.905 201.757 145.021C203.897 143.672 205.991 142.277 207.759 140.416C208.596 139.532 209.341 138.601 210.178 137.81C213.249 134.926 215.854 131.716 217.994 128.133C218.645 127.017 219.436 125.993 219.995 124.83C220.553 123.621 219.715 122.69 218.32 122.783C217.017 122.876 216.273 123.714 215.482 124.551C214.412 125.668 213.295 126.738 212.132 127.808C211.574 128.319 210.969 128.692 210.364 129.157C209.992 129.436 209.666 129.715 209.341 130.041C209.294 129.994 209.248 129.948 209.201 129.948C209.108 129.948 209.062 129.948 208.969 129.948C208.922 129.948 208.876 129.948 208.876 129.948C208.829 129.948 208.783 129.901 208.736 129.901C208.736 129.855 208.689 129.808 208.689 129.762C208.689 129.715 208.689 129.669 208.689 129.669C208.689 129.576 208.689 129.529 208.689 129.436C208.643 129.39 208.596 129.343 208.55 129.297C208.736 129.017 208.922 128.738 209.155 128.506C209.946 127.715 210.178 126.924 209.666 125.854C209.434 125.389 209.434 124.691 209.666 124.226C210.504 122.644 210.457 122.504 208.689 121.946C208.643 121.946 208.643 121.899 208.596 121.899C207.573 121.574 207.387 120.829 208.085 120.038C208.317 119.806 208.596 119.573 208.783 119.294C209.108 118.875 209.108 118.55 208.457 118.41C207.852 118.27 207.247 117.991 206.642 117.805C204.875 117.247 203.432 117.759 202.502 119.294C202.037 120.038 201.664 120.922 201.106 121.574C199.943 122.969 198.687 124.365 197.338 125.621C195.384 127.482 193.43 129.297 191.336 130.971C188.964 132.879 186.451 134.6 184.032 136.415C183.102 137.112 182.915 137.764 183.288 138.741C183.474 139.206 183.613 139.718 183.799 140.23C183.753 140.276 183.706 140.323 183.66 140.369C183.66 140.416 183.613 140.462 183.613 140.509C183.567 140.555 183.474 140.602 183.427 140.695C183.381 140.741 183.288 140.788 183.241 140.881C183.195 140.927 183.102 140.974 183.055 141.067C182.264 141.067 181.566 140.695 181.473 139.997C181.241 138.462 180.217 137.299 179.426 136.042C178.449 134.554 178.217 132.693 176.821 131.39C175.937 130.553 175.239 129.622 174.495 128.692C172.82 126.598 171.145 124.505 169.517 122.365C167.842 120.224 166.121 118.084 164.539 115.851C163.562 114.502 162.864 112.967 161.933 111.525C161.05 110.082 160.166 108.64 158.677 107.663C158.165 107.291 157.56 106.872 157.328 106.314C156.304 103.848 154.49 101.894 153.047 99.7076C152.07 98.2189 150.954 96.8697 150.023 95.3344C147.976 91.8917 145.883 88.4954 143.324 85.3784C141.649 83.3779 140.347 81.1448 139.463 78.7255C139.509 78.679 139.556 78.6325 139.602 78.586C139.602 78.493 139.602 78.4464 139.602 78.3534C139.602 78.3068 139.602 78.2603 139.602 78.2603C139.602 78.1673 139.602 78.1207 139.602 78.0276C139.602 77.9811 139.602 77.9346 139.602 77.9346C139.602 77.8416 139.602 77.7951 139.602 77.702C139.602 77.6555 139.602 77.609 139.602 77.609V77.3764C139.602 77.3299 139.602 77.2834 139.602 77.2834C139.602 77.1904 139.602 77.1439 139.602 77.0508C139.602 77.0042 139.602 76.9578 139.602 76.9578C139.556 76.8647 139.509 76.7717 139.463 76.7252C139.416 76.6786 139.323 76.6321 139.277 76.5391C139.184 76.4925 139.09 76.4461 138.997 76.3995C138.951 76.3995 138.904 76.3995 138.858 76.3995C138.765 76.3995 138.718 76.3995 138.625 76.3995C138.579 76.3995 138.532 76.3995 138.486 76.3995C138.393 76.3995 138.346 76.3995 138.253 76.3995C138.207 76.4461 138.16 76.4926 138.067 76.5391C138.02 76.5391 138.02 76.5391 137.974 76.5391C137.323 75.7482 136.997 74.8642 136.904 73.8407C136.95 73.7942 136.997 73.7477 137.043 73.7012C137.043 73.6546 137.09 73.6082 137.09 73.5616C137.136 73.4685 137.183 73.422 137.23 73.329C137.23 73.2824 137.23 73.2359 137.23 73.2359C137.183 73.1429 137.137 73.0498 137.09 73.0033L136.904 72.8171C136.857 72.7706 136.764 72.7241 136.718 72.631C136.671 72.5845 136.578 72.5379 136.532 72.4449L136.253 72.3054H136.16C135.555 71.4679 134.857 70.677 134.345 69.8396C133.136 67.6995 132.019 65.4664 130.809 63.3264C129.181 60.5349 127.553 57.7901 125.878 54.9986C123.97 51.8816 122.063 48.718 120.109 45.6474C119.178 44.1587 118.295 42.67 117.876 40.9951C117.643 40.1112 117.411 39.2272 116.945 38.4363C115.503 36.1567 114.061 33.877 112.479 31.6904C109.595 27.6894 106.757 23.5953 103.221 20.0596C100.988 17.7799 98.8942 15.3607 96.6611 13.1276C95.8237 12.2901 94.8002 11.6388 93.7767 11.034C92.6136 10.2896 91.3575 9.68483 90.1479 8.98698C90.1944 8.94043 90.2409 8.89398 90.2409 8.84742C90.1943 8.80087 90.1479 8.70785 90.1013 8.66132C90.0547 8.61477 90.0083 8.52175 89.9617 8.47523C89.9152 8.42868 89.8686 8.33565 89.7756 8.28913C89.6826 8.24258 89.6361 8.19613 89.543 8.14957C89.1708 7.77737 88.8451 7.31214 88.3799 7.07952C87.2168 6.42819 85.9607 5.86991 84.7046 5.35815C82.8436 4.61377 80.9827 3.77636 79.0287 3.21808C77.633 2.79941 76.1442 2.75288 74.6555 2.52026H72.0037C71.8176 2.56681 71.6315 2.61327 71.4454 2.65984C70.0032 2.84593 68.4679 2.84593 67.1652 3.31117C63.6294 4.61382 60.0471 5.91649 56.6509 7.63785C51.5799 10.1966 46.8345 13.2672 42.88 17.2682C40.5538 19.6409 38.6929 22.2927 37.3437 25.2237C36.9715 26.0611 36.6459 27.0847 36.7854 27.9221C37.0646 29.69 39.2512 30.8065 41.1586 30.4343C42.6474 30.1552 43.95 29.5039 45.2062 28.713C48.2302 26.8986 51.3473 25.2237 54.2782 23.2232C56.6044 21.6879 59.1167 20.7109 61.815 19.9666C63.5829 19.5013 65.3973 19.3152 67.2118 19.0826C68.5144 18.943 69.9101 18.7569 71.1197 19.0361C76.1442 20.1526 80.2383 22.7114 83.4484 26.5263C83.588 26.7124 83.9137 26.8055 84.1463 26.8985L84.3324 27.0846C84.3789 27.0381 84.4254 26.9916 84.4254 26.9916C84.3788 27.0382 84.3324 27.0846 84.3324 27.0846C84.3789 27.1312 84.4719 27.1776 84.5185 27.2707C84.565 27.3173 84.658 27.3637 84.7046 27.4568C84.7511 27.5033 84.8441 27.5498 84.8907 27.6429C84.9372 27.6895 85.0302 27.736 85.0768 27.829C85.1233 27.8755 85.1698 27.922 85.2629 28.0151C85.3094 27.9685 85.3559 27.9685 85.4024 27.922C85.3559 27.9685 85.3094 28.0151 85.2629 28.0151C85.2629 28.0616 85.3094 28.1081 85.3094 28.1547C85.356 28.2942 85.449 28.4338 85.4955 28.5734C85.4955 28.6665 85.449 28.806 85.5421 28.899C86.7982 30.8995 88.1008 32.9001 89.357 34.9006C89.9152 35.738 90.4735 36.5754 90.9388 37.4593C91.6366 38.8085 92.4275 40.1112 93.8232 40.9021C93.8232 40.9952 93.8232 41.0882 93.8232 41.1812V41.2742C93.8698 41.3672 93.9162 41.4603 93.9628 41.5534C93.9628 41.5999 94.0093 41.6464 94.0093 41.7395C94.0559 41.786 94.0559 41.8325 94.1024 41.8325C93.9629 42.9025 94.7072 43.5538 95.4051 44.2051C95.4516 44.2051 95.4981 44.2051 95.5446 44.2051C95.5912 44.2517 95.6842 44.2981 95.7307 44.3912C95.7773 44.3447 95.8237 44.2982 95.8237 44.2982C95.7772 44.3448 95.7307 44.3912 95.7307 44.3912C95.8237 44.4378 95.9168 44.4842 96.0099 44.5308H96.0564H96.103C96.196 44.5308 96.2426 44.5308 96.3356 44.5308H96.3821H96.4287C96.5217 44.5308 96.5682 44.5308 96.6613 44.5308H96.7078H96.7544C96.801 44.5308 96.8474 44.5774 96.894 44.5774C96.987 44.6239 97.0335 44.6704 97.1266 44.7169C97.6384 45.3683 98.2431 45.973 98.6619 46.6709C99.3132 47.7875 99.8715 48.9506 100.43 50.1136C100.523 50.3463 100.43 50.6254 100.43 50.9045C100.197 50.858 99.9645 50.858 99.7319 50.8115C99.5458 50.8115 99.2201 50.7184 99.1736 50.8115C99.0341 50.9511 99.0341 51.2302 99.0341 51.4163C99.0341 51.649 99.1736 51.8351 99.2667 52.0211C102.058 57.3248 104.896 62.675 107.734 67.9787C107.92 68.3509 108.525 68.5835 108.897 68.8161C109.223 69.0487 109.688 69.1418 109.874 69.4209C110.991 71.4214 112.154 73.3754 113.131 75.4689C113.689 76.6786 113.875 78.0743 114.387 79.3304C114.852 80.447 115.317 81.7031 116.201 82.494C117.178 83.4245 117.783 84.3549 117.923 85.6111C118.062 86.6346 118.341 87.5185 119.365 88.0303C119.504 88.1233 119.551 88.3094 119.644 88.4955C120.481 89.9843 121.179 91.5661 122.156 92.9618C123.459 94.9158 124.715 96.9163 126.762 98.312C126.855 98.405 126.948 98.4981 127.041 98.6376C127.879 99.4751 127.832 100.638 128.018 101.662C128.251 102.964 128.53 104.22 130.019 104.825H130.205C130.251 104.872 130.298 104.918 130.391 104.965C130.391 105.011 130.391 105.104 130.391 105.151C130.623 105.384 130.856 105.663 131.089 105.895C131.135 105.988 131.228 106.035 131.275 106.128C131.275 106.174 131.228 106.221 131.228 106.267C131.182 107.105 131.135 107.989 131.042 108.826C130.996 109.617 131.414 109.943 132.112 110.315C132.996 110.78 134.02 111.385 134.485 112.176C135.508 113.804 136.206 115.665 137.09 117.387C137.742 118.596 138.486 119.806 139.323 120.922C140.068 121.899 140.998 122.783 141.696 123.76C143.278 125.9 144.767 128.04 146.302 130.227C147.465 131.855 148.628 133.53 149.791 135.159C150.117 135.624 150.442 136.042 150.768 136.461C151.978 137.996 153.187 139.485 154.35 141.02C155.327 142.277 156.211 143.579 157.142 144.835C157.7 145.58 158.258 146.324 158.91 146.975C159.608 147.72 160.399 148.325 161.05 149.069C162.352 150.511 163.562 151.953 164.772 153.442C165.795 154.652 166.726 155.908 167.703 157.118C167.656 157.164 167.61 157.211 167.563 157.257C167.563 157.35 167.563 157.397 167.563 157.49C167.563 157.536 167.563 157.583 167.563 157.583C167.61 157.676 167.656 157.769 167.703 157.815C167.749 157.769 167.796 157.722 167.842 157.722C167.796 157.769 167.749 157.815 167.703 157.815C167.703 157.862 167.749 157.908 167.749 157.955C167.749 158.001 167.749 158.048 167.749 158.048C167.796 158.141 167.842 158.234 167.889 158.281C167.935 158.327 167.982 158.374 168.075 158.467C168.075 158.513 168.075 158.56 168.121 158.606C168.494 159.165 168.819 159.862 169.285 160.281C172.169 162.933 175.1 165.492 178.077 168.097C178.496 168.469 179.008 168.702 179.427 168.981C179.473 168.981 179.52 168.981 179.566 168.981C179.613 169.027 179.706 169.074 179.752 169.121C179.845 169.167 179.938 169.214 180.031 169.26H180.078C180.125 169.26 180.218 169.307 180.264 169.307C180.311 169.539 180.311 169.865 180.497 170.004C182.404 171.679 184.265 173.447 186.87 174.145C188.499 174.564 189.801 175.587 191.151 176.471C191.848 176.936 192.453 177.495 192.918 178.146C193.57 178.983 194.221 179.077 194.826 178.239C195.245 177.634 195.71 177.541 196.315 177.867C196.966 178.193 197.571 178.472 198.176 178.797C199.525 179.495 200.874 180.24 202.27 180.984C203.293 181.496 204.038 182.473 205.34 182.566C206.875 182.705 208.364 183.077 209.853 183.357H210.737C211.156 183.31 211.621 183.264 212.04 183.217C213.11 183.077 214.04 183.077 214.505 181.728C214.924 180.565 216.134 179.681 217.483 179.263C218.227 179.03 219.204 179.076 219.762 178.658C221.205 177.588 222.647 176.471 223.717 175.122C227.392 170.656 230.649 165.957 233.394 160.932C236.557 155.07 238.884 148.976 240.745 142.695C242.187 137.764 243.21 132.693 244.28 127.622C244.746 125.9 244.373 123.807 242.093 122.876Z" fill="black"/>
<path d="M242.093 122.876C239.674 121.899 237.348 120.783 234.975 119.713C234.045 119.294 233.068 118.875 232.091 118.503C231.021 118.084 229.904 118.131 228.881 118.689C228.136 119.108 227.345 119.527 226.601 119.945C225.67 120.457 225.112 121.155 224.926 122.132C224.6 123.807 224.414 125.528 223.856 127.156C222.321 131.855 220.646 136.554 219.018 141.253C218.366 143.16 217.622 145.068 216.878 146.929C216.459 147.999 216.04 149.209 215.249 149.999C214.086 151.116 213.156 152.279 212.411 153.628C210.411 157.211 206.689 157.722 203.293 156.187C201.432 155.303 199.757 154.093 197.989 152.977C197.338 152.558 196.733 152.139 196.221 151.628C195.291 150.744 195.291 149.767 196.268 148.883C196.64 148.511 197.152 148.278 197.617 147.952C199.012 146.975 200.315 145.905 201.757 145.021C203.897 143.672 205.991 142.277 207.759 140.416C208.596 139.532 209.341 138.601 210.178 137.81C213.249 134.926 215.854 131.716 217.994 128.133C218.645 127.017 219.436 125.993 219.995 124.83C220.553 123.621 219.715 122.69 218.32 122.783C217.017 122.876 216.273 123.714 215.482 124.551C214.412 125.668 213.295 126.738 212.132 127.808C211.574 128.319 210.969 128.692 210.364 129.157C209.992 129.436 209.666 129.715 209.341 130.041C209.294 129.994 209.248 129.948 209.201 129.948C209.108 129.948 209.062 129.948 208.969 129.948C208.922 129.948 208.876 129.948 208.876 129.948C208.829 129.948 208.783 129.901 208.736 129.901C208.736 129.855 208.689 129.808 208.689 129.762C208.689 129.715 208.689 129.669 208.689 129.669C208.689 129.576 208.689 129.529 208.689 129.436C208.643 129.39 208.596 129.343 208.55 129.297C208.736 129.017 208.922 128.738 209.155 128.506C209.946 127.715 210.178 126.924 209.666 125.854C209.434 125.389 209.434 124.691 209.666 124.226C210.504 122.644 210.457 122.504 208.689 121.946C208.643 121.946 208.643 121.899 208.596 121.899C207.573 121.574 207.387 120.829 208.085 120.038C208.317 119.806 208.596 119.573 208.783 119.294C209.108 118.875 209.108 118.55 208.457 118.41C207.852 118.27 207.247 117.991 206.642 117.805C204.875 117.247 203.432 117.759 202.502 119.294C202.037 120.038 201.664 120.922 201.106 121.574C199.943 122.969 198.687 124.365 197.338 125.621C195.384 127.482 193.43 129.297 191.336 130.971C188.964 132.879 186.451 134.6 184.032 136.415C183.102 137.112 182.915 137.764 183.288 138.741C183.474 139.206 183.613 139.718 183.799 140.23C183.753 140.276 183.706 140.323 183.66 140.369C183.66 140.416 183.613 140.462 183.613 140.509C183.567 140.555 183.474 140.602 183.427 140.695C183.381 140.741 183.288 140.788 183.241 140.881C183.195 140.927 183.102 140.974 183.055 141.067C182.264 141.067 181.566 140.695 181.473 139.997C181.241 138.462 180.217 137.299 179.426 136.042C178.449 134.554 178.217 132.693 176.821 131.39C175.937 130.553 175.239 129.622 174.495 128.692C172.82 126.598 171.145 124.505 169.517 122.365C167.842 120.224 166.121 118.084 164.539 115.851C163.562 114.502 162.864 112.967 161.933 111.525C161.05 110.082 160.166 108.64 158.677 107.663C158.165 107.291 157.56 106.872 157.328 106.314C156.304 103.848 154.49 101.894 153.047 99.7076C152.07 98.2189 150.954 96.8697 150.023 95.3344C147.976 91.8917 145.883 88.4954 143.324 85.3784C141.649 83.3779 140.347 81.1448 139.463 78.7255C139.509 78.679 139.556 78.6325 139.602 78.586C139.602 78.493 139.602 78.4464 139.602 78.3534C139.602 78.3068 139.602 78.2603 139.602 78.2603C139.602 78.1673 139.602 78.1207 139.602 78.0276C139.602 77.9811 139.602 77.9346 139.602 77.9346C139.602 77.8416 139.602 77.7951 139.602 77.702C139.602 77.6555 139.602 77.609 139.602 77.609V77.3764C139.602 77.3299 139.602 77.2834 139.602 77.2834C139.602 77.1904 139.602 77.1439 139.602 77.0508C139.602 77.0042 139.602 76.9578 139.602 76.9578C139.556 76.8647 139.509 76.7717 139.463 76.7252C139.416 76.6786 139.323 76.6321 139.277 76.5391C139.184 76.4925 139.09 76.4461 138.997 76.3995C138.951 76.3995 138.904 76.3995 138.858 76.3995C138.765 76.3995 138.718 76.3995 138.625 76.3995C138.579 76.3995 138.532 76.3995 138.486 76.3995C138.393 76.3995 138.346 76.3995 138.253 76.3995C138.207 76.4461 138.16 76.4926 138.067 76.5391C138.02 76.5391 138.02 76.5391 137.974 76.5391C137.323 75.7482 136.997 74.8642 136.904 73.8407C136.95 73.7942 136.997 73.7477 137.043 73.7012C137.043 73.6546 137.09 73.6082 137.09 73.5616C137.136 73.4685 137.183 73.422 137.23 73.329C137.23 73.2824 137.23 73.2359 137.23 73.2359C137.183 73.1429 137.137 73.0498 137.09 73.0033L136.904 72.8171C136.857 72.7706 136.764 72.7241 136.718 72.631C136.671 72.5845 136.578 72.5379 136.532 72.4449L136.253 72.3054H136.16C135.555 71.4679 134.857 70.677 134.345 69.8396C133.136 67.6995 132.019 65.4664 130.809 63.3264C129.181 60.5349 127.553 57.7901 125.878 54.9986C123.97 51.8816 122.063 48.718 120.109 45.6474C119.178 44.1587 118.295 42.67 117.876 40.9951C117.643 40.1112 117.411 39.2272 116.945 38.4363C115.503 36.1567 114.061 33.877 112.479 31.6904C109.595 27.6894 106.757 23.5953 103.221 20.0596C100.988 17.7799 98.8942 15.3607 96.6611 13.1276C95.8237 12.2901 94.8002 11.6388 93.7767 11.034C92.6136 10.2896 91.3575 9.68483 90.1479 8.98698C90.1944 8.94043 90.2409 8.89398 90.2409 8.84742C90.1943 8.80087 90.1479 8.70785 90.1013 8.66132C90.0547 8.61477 90.0083 8.52175 89.9617 8.47523C89.9152 8.42868 89.8686 8.33565 89.7756 8.28913C89.6826 8.24258 89.6361 8.19613 89.543 8.14957C89.1708 7.77737 88.8451 7.31214 88.3799 7.07952C87.2168 6.42819 85.9607 5.86991 84.7046 5.35815C82.8436 4.61377 80.9827 3.77636 79.0287 3.21808C77.633 2.79941 76.1442 2.75288 74.6555 2.52026H72.0037C71.8176 2.56681 71.6315 2.61327 71.4454 2.65984C70.0032 2.84593 68.4679 2.84593 67.1652 3.31117C63.6294 4.61382 60.0471 5.91649 56.6509 7.63785C51.5799 10.1966 46.8345 13.2672 42.88 17.2682C40.5538 19.6409 38.6929 22.2927 37.3437 25.2237C36.9715 26.0611 36.6459 27.0847 36.7854 27.9221C37.0646 29.69 39.2512 30.8065 41.1586 30.4343C42.6474 30.1552 43.95 29.5039 45.2062 28.713C48.2302 26.8986 51.3473 25.2237 54.2782 23.2232C56.6044 21.6879 59.1167 20.7109 61.815 19.9666C63.5829 19.5013 65.3973 19.3152 67.2118 19.0826C68.5144 18.943 69.9101 18.7569 71.1197 19.0361C76.1442 20.1526 80.2383 22.7114 83.4484 26.5263C83.588 26.7124 83.9137 26.8055 84.1463 26.8985L84.3324 27.0846C84.3789 27.0381 84.4254 26.9916 84.4254 26.9916C84.3788 27.0382 84.3324 27.0846 84.3324 27.0846C84.3789 27.1312 84.4719 27.1776 84.5185 27.2707C84.565 27.3173 84.658 27.3637 84.7046 27.4568C84.7511 27.5033 84.8441 27.5498 84.8907 27.6429C84.9372 27.6895 85.0302 27.736 85.0768 27.829C85.1233 27.8755 85.1698 27.922 85.2629 28.0151C85.3094 27.9685 85.3559 27.9685 85.4024 27.922C85.3559 27.9685 85.3094 28.0151 85.2629 28.0151C85.2629 28.0616 85.3094 28.1081 85.3094 28.1547C85.356 28.2942 85.449 28.4338 85.4955 28.5734C85.4955 28.6665 85.449 28.806 85.5421 28.899C86.7982 30.8995 88.1008 32.9001 89.357 34.9006C89.9152 35.738 90.4735 36.5754 90.9388 37.4593C91.6366 38.8085 92.4275 40.1112 93.8232 40.9021C93.8232 40.9952 93.8232 41.0882 93.8232 41.1812V41.2742C93.8698 41.3672 93.9162 41.4603 93.9628 41.5534C93.9628 41.5999 94.0093 41.6464 94.0093 41.7395C94.0559 41.786 94.0559 41.8325 94.1024 41.8325C93.9629 42.9025 94.7072 43.5538 95.4051 44.2051C95.4516 44.2051 95.4981 44.2051 95.5446 44.2051C95.5912 44.2517 95.6842 44.2981 95.7307 44.3912C95.7773 44.3447 95.8237 44.2982 95.8237 44.2982C95.7772 44.3448 95.7307 44.3912 95.7307 44.3912C95.8237 44.4378 95.9168 44.4842 96.0099 44.5308H96.0564H96.103C96.196 44.5308 96.2426 44.5308 96.3356 44.5308H96.3821H96.4287C96.5217 44.5308 96.5682 44.5308 96.6613 44.5308H96.7078H96.7544C96.801 44.5308 96.8474 44.5774 96.894 44.5774C96.987 44.6239 97.0335 44.6704 97.1266 44.7169C97.6384 45.3683 98.2431 45.973 98.6619 46.6709C99.3132 47.7875 99.8715 48.9506 100.43 50.1136C100.523 50.3463 100.43 50.6254 100.43 50.9045C100.197 50.858 99.9645 50.858 99.7319 50.8115C99.5458 50.8115 99.2201 50.7184 99.1736 50.8115C99.0341 50.9511 99.0341 51.2302 99.0341 51.4163C99.0341 51.649 99.1736 51.8351 99.2667 52.0211C102.058 57.3248 104.896 62.675 107.734 67.9787C107.92 68.3509 108.525 68.5835 108.897 68.8161C109.223 69.0487 109.688 69.1418 109.874 69.4209C110.991 71.4214 112.154 73.3754 113.131 75.4689C113.689 76.6786 113.875 78.0743 114.387 79.3304C114.852 80.447 115.317 81.7031 116.201 82.494C117.178 83.4245 117.783 84.3549 117.923 85.6111C118.062 86.6346 118.341 87.5185 119.365 88.0303C119.504 88.1233 119.551 88.3094 119.644 88.4955C120.481 89.9843 121.179 91.5661 122.156 92.9618C123.459 94.9158 124.715 96.9163 126.762 98.312C126.855 98.405 126.948 98.4981 127.041 98.6376C127.879 99.4751 127.832 100.638 128.018 101.662C128.251 102.964 128.53 104.22 130.019 104.825H130.205C130.251 104.872 130.298 104.918 130.391 104.965C130.391 105.011 130.391 105.104 130.391 105.151C130.623 105.384 130.856 105.663 131.089 105.895C131.135 105.988 131.228 106.035 131.275 106.128C131.275 106.174 131.228 106.221 131.228 106.267C131.182 107.105 131.135 107.989 131.042 108.826C130.996 109.617 131.414 109.943 132.112 110.315C132.996 110.78 134.02 111.385 134.485 112.176C135.508 113.804 136.206 115.665 137.09 117.387C137.742 118.596 138.486 119.806 139.323 120.922C140.068 121.899 140.998 122.783 141.696 123.76C143.278 125.9 144.767 128.04 146.302 130.227C147.465 131.855 148.628 133.53 149.791 135.159C150.117 135.624 150.442 136.042 150.768 136.461C151.978 137.996 153.187 139.485 154.35 141.02C155.327 142.277 156.211 143.579 157.142 144.835C157.7 145.58 158.258 146.324 158.91 146.975C159.608 147.72 160.399 148.325 161.05 149.069C162.352 150.511 163.562 151.953 164.772 153.442C165.795 154.652 166.726 155.908 167.703 157.118C167.656 157.164 167.61 157.211 167.563 157.257C167.563 157.35 167.563 157.397 167.563 157.49C167.563 157.536 167.563 157.583 167.563 157.583C167.61 157.676 167.656 157.769 167.703 157.815C167.749 157.769 167.796 157.722 167.842 157.722C167.796 157.769 167.749 157.815 167.703 157.815C167.703 157.862 167.749 157.908 167.749 157.955C167.749 158.001 167.749 158.048 167.749 158.048C167.796 158.141 167.842 158.234 167.889 158.281C167.935 158.327 167.982 158.374 168.075 158.467C168.075 158.513 168.075 158.56 168.121 158.606C168.494 159.165 168.819 159.862 169.285 160.281C172.169 162.933 175.1 165.492 178.077 168.097C178.496 168.469 179.008 168.702 179.427 168.981C179.473 168.981 179.52 168.981 179.566 168.981C179.613 169.027 179.706 169.074 179.752 169.121C179.845 169.167 179.938 169.214 180.031 169.26H180.078C180.125 169.26 180.218 169.307 180.264 169.307C180.311 169.539 180.311 169.865 180.497 170.004C182.404 171.679 184.265 173.447 186.87 174.145C188.499 174.564 189.801 175.587 191.151 176.471C191.848 176.936 192.453 177.495 192.918 178.146C193.57 178.983 194.221 179.077 194.826 178.239C195.245 177.634 195.71 177.541 196.315 177.867C196.966 178.193 197.571 178.472 198.176 178.797C199.525 179.495 200.874 180.24 202.27 180.984C203.293 181.496 204.038 182.473 205.34 182.566C206.875 182.705 208.364 183.077 209.853 183.357H210.737C211.156 183.31 211.621 183.264 212.04 183.217C213.11 183.077 214.04 183.077 214.505 181.728C214.924 180.565 216.134 179.681 217.483 179.263C218.227 179.03 219.204 179.076 219.762 178.658C221.205 177.588 222.647 176.471 223.717 175.122C227.392 170.656 230.649 165.957 233.394 160.932C236.557 155.07 238.884 148.976 240.745 142.695C242.187 137.764 243.21 132.693 244.28 127.622C244.746 125.9 244.373 123.807 242.093 122.876Z" fill="black"/>
<path d="M167.516 163.119C166.772 162.654 166.167 162.189 165.795 161.351C165.004 159.444 163.05 159.072 161.282 158.653C160.724 158.513 159.933 159.165 159.235 159.397C158.165 159.769 157.048 160.095 155.932 160.467C155.885 160.467 155.839 160.467 155.792 160.467C155.699 160.421 155.606 160.374 155.513 160.374C155.467 160.374 155.42 160.374 155.374 160.374C155.374 160.328 155.374 160.281 155.374 160.281C155.374 160.188 155.374 160.142 155.374 160.049C155.374 160.002 155.374 159.956 155.374 159.956V159.723C155.374 159.677 155.374 159.63 155.374 159.63C155.374 159.584 155.374 159.49 155.42 159.444C155.653 159.258 155.885 159.025 156.164 158.839C156.862 158.374 157.514 157.909 157.467 156.932C157.467 156.559 158.025 156.048 158.491 155.815C159.468 155.303 160.491 154.931 161.515 154.466C162.119 154.187 162.399 153.675 162.119 153.21C161.98 152.977 161.235 152.884 160.817 153.024C159.375 153.396 159.142 153.349 158.398 152.093C157.839 151.163 157.421 150.977 156.304 151.349C155.234 151.675 154.21 152.14 153.14 152.372C149.651 153.21 146.115 153.954 142.626 154.699C138.904 155.489 135.089 155.862 131.274 155.536C129.041 155.35 126.855 155.257 124.622 155.024C121.551 154.652 118.527 154.233 115.503 153.675C110.711 152.791 105.919 151.768 101.406 149.86C98.708 148.697 95.9166 147.673 93.3112 146.324C90.9851 145.115 88.938 143.486 86.3327 142.835C86.1932 142.788 86.0536 142.695 85.9605 142.649C83.8205 141.346 81.5873 140.09 79.4938 138.648C76.935 136.927 74.4693 135.112 71.957 133.344C70.8404 132.553 69.8169 131.669 68.3747 131.251C66.5603 130.692 65.0715 129.622 64.6993 127.622C64.6063 126.971 64.2341 126.691 63.6293 126.459C62.8849 126.133 62.0475 125.761 61.4892 125.249C60.3261 124.179 59.2561 122.97 58.1861 121.806C57.2091 120.736 56.2786 119.713 55.7203 118.364C55.4412 117.759 55.2086 117.154 54.7898 116.642C53.0219 114.549 51.068 112.595 49.3931 110.408C47.5322 108.036 45.8573 105.477 44.136 102.964C43.159 101.569 42.3681 100.08 41.3911 98.6843C40.6467 97.5677 39.5767 96.6838 39.2045 95.3346C38.9254 94.3576 38.6927 93.3341 38.1344 92.4967C36.2735 89.7053 34.9243 86.6813 33.5286 83.7038C32.226 80.8658 30.8303 77.9814 29.7137 75.0969C26.9688 68.0719 25.0614 60.7677 23.34 53.4635C22.9213 51.6026 22.363 49.7417 21.2464 48.1599C19.9438 46.2989 18.4085 46.2989 17.1058 48.1599C15.2914 50.7187 14.8262 53.6031 14.5936 56.5806C14.5006 57.6972 14.4075 58.7672 14.3145 59.8838V63.7452C14.361 64.0709 14.4075 64.3965 14.454 64.7222C14.5936 65.8388 14.454 67.0018 14.8727 67.9788C15.431 69.235 15.3845 70.4911 15.431 71.7938C15.431 72.4916 15.7102 73.1895 15.8963 73.8408C16.0824 74.5852 16.408 75.283 16.5476 76.0739C16.9198 78.0279 17.0593 79.9819 17.5711 81.8893C18.455 85.0064 19.5716 88.077 20.6882 91.1475C22.0373 94.7763 23.3865 98.4517 24.8753 102.034C25.7592 104.221 26.9223 106.314 28.0389 108.408C29.8533 111.943 31.5747 115.526 33.6217 118.922C35.2965 121.713 37.297 124.319 39.2045 126.971C40.3676 128.599 41.5307 130.227 42.8798 131.716C44.8338 133.996 46.8809 136.182 48.9744 138.369C50.9749 140.462 53.0219 142.463 55.1155 144.463C55.4412 144.789 56.046 144.882 56.5112 145.115C56.5578 145.161 56.6508 145.208 56.6973 145.301C56.7903 145.347 56.8834 145.394 56.9764 145.44C57.023 145.44 57.0694 145.44 57.116 145.44C57.1626 145.44 57.209 145.44 57.3021 145.44C57.3486 145.487 57.4417 145.533 57.4882 145.58H57.5812C57.8138 145.58 58.0464 145.58 58.279 145.58H58.3721C58.4186 145.58 58.5116 145.58 58.5581 145.58C58.6047 145.58 58.6511 145.58 58.6977 145.58C58.8373 145.673 59.0234 145.719 59.1629 145.813C61.1169 147.394 63.0709 149.023 64.5131 151.07C64.7458 151.395 65.0714 151.721 65.3971 151.954C66.281 152.651 67.165 153.303 68.0954 153.908C70.189 155.303 72.1895 156.932 74.5157 157.909C78.098 159.444 81.3546 161.491 84.8439 163.212C86.6583 164.096 88.3797 165.259 90.6593 164.841C90.9385 164.794 91.2641 164.887 91.4967 164.98C92.9855 165.492 94.4742 166.05 95.963 166.562C99.4988 167.818 103.128 168.702 106.57 170.237C108.431 171.075 110.664 171.261 112.758 171.587C115.922 172.098 119.132 172.61 122.342 172.982C124.854 173.261 127.366 173.308 129.879 173.308C136.485 173.308 143.138 173.634 149.651 172.145C152.349 171.54 155.094 170.889 157.746 170.051C159.747 169.446 161.608 168.469 163.515 167.632C164.957 166.981 166.446 166.422 167.842 165.632C168.726 164.748 168.586 163.771 167.516 163.119" fill="black"/>
<path d="M323.37 35.9706C323.184 34.2957 322.718 32.6674 321.648 31.2252C320.299 29.4108 318.95 27.5498 317.508 25.7819C315.926 23.8279 314.251 21.9205 312.576 20.0595C311.46 18.8034 310.064 17.873 308.389 17.4077C306.063 16.7099 303.737 16.012 301.364 15.4537C298.945 14.8954 296.619 15.4537 294.339 16.2912C292.152 17.0821 290.012 17.966 287.872 18.8034C286.104 19.5478 284.243 20.1991 282.569 21.1296C279.545 22.8044 277.405 25.3632 275.544 28.1081C274.194 30.1086 272.473 31.5974 270.333 32.807C268.984 33.5513 267.728 34.5283 266.704 35.6449C265.681 36.7149 264.564 37.4593 263.168 37.9711C261.54 38.6224 259.167 40.2507 257.586 40.9951C257.167 41.2277 256.702 41.4138 256.376 41.693C255.539 42.3908 254.794 43.2282 253.864 43.833C251.212 45.6009 248.56 47.3223 245.815 48.9506C244.326 49.8345 242.745 50.5324 241.116 51.1372C238.092 52.2538 236.045 54.1147 235.487 57.2318C235.208 58.7205 234.929 60.2558 234.324 61.605C233.719 63.0007 233.626 64.2568 234.231 65.5595C234.696 66.6295 234.556 67.653 234.091 68.6765C233.719 69.5605 233.44 70.4444 233.114 71.3284C231.3 76.6786 229.904 82.1218 227.578 87.3324C225.671 91.6126 223.112 95.474 220.599 99.382C218.971 101.894 216.924 104.174 214.924 106.454C213.388 108.221 211.62 109.85 209.992 111.525C209.434 112.129 208.736 112.595 208.224 113.246C207.526 114.083 207.852 114.874 208.922 115.246C209.201 115.34 209.527 115.386 209.853 115.433C211.434 115.758 213.156 115.665 214.412 116.875C215.017 117.433 215.528 117.991 216.133 118.55C216.971 119.341 217.994 119.108 218.413 118.084C218.552 117.759 218.599 117.387 218.645 117.014C218.878 114.828 219.995 113.293 222.042 112.222C224.554 110.92 227.02 109.571 229.346 107.942C233.347 105.104 236.324 101.615 238.046 97.1489C239.488 93.334 240 89.3795 240.232 85.3784C240.279 84.7271 240.325 84.1223 240.511 83.5175C240.604 83.2384 240.884 83.0058 241.116 82.7731C241.349 83.0523 241.582 83.2849 241.721 83.564C241.907 83.9362 241.954 84.3549 242.093 84.7271C242.419 85.4715 243.21 85.6576 243.768 85.0528C244.28 84.4945 244.745 83.7966 244.978 83.0988C246.094 79.563 247.164 76.0272 246.606 72.3054C246.28 70.3514 246.001 68.3509 244.699 66.676C243.117 64.629 243.396 63.7451 244.745 61.698C245.536 60.4884 246.513 60.4419 247.583 61.2328C249.491 62.675 250.421 64.6755 250.561 66.9086C250.607 67.9322 250.421 69.0022 250.421 70.0722C250.467 73.608 249.909 77.0508 248.653 80.4004C246.746 85.518 244.792 90.6356 242.233 95.5206C241.488 96.9163 240.558 98.2189 240 99.6611C238.976 102.499 237.348 104.872 234.929 106.872C231.951 109.385 228.881 111.757 225.205 113.339C223.484 114.083 222.088 115.293 221.251 116.968C221.158 117.154 221.111 117.387 221.018 117.573C220.739 118.271 220.739 118.968 221.483 119.341C222.228 119.713 222.833 119.294 223.298 118.736C224.414 117.34 225.81 116.549 227.671 116.782C230.835 117.2 233.998 117.619 237.162 118.131C239.069 118.457 241.023 118.829 242.652 119.992C243.629 120.69 244.419 121.667 245.303 122.551C246.048 123.249 246.606 123.342 247.444 122.783C249.444 121.434 250.607 119.527 251.212 117.247C251.677 115.526 252.096 113.758 252.747 112.083C253.538 109.989 254.515 107.989 255.352 105.942C256.283 103.709 256.934 101.429 258.051 99.289C259.912 95.6601 261.959 92.1243 264.518 88.8212C265.308 87.7977 266.099 86.6811 267.03 85.7506C267.309 85.425 268.053 85.3784 268.519 85.425C268.798 85.4715 269.03 86.0298 269.17 86.402C269.309 86.7741 269.309 87.2394 269.403 87.6116C269.821 89.4725 270.938 90.2634 272.938 89.0073C275.497 87.3325 277.684 85.2854 279.312 82.7731C280.847 80.4004 280.568 78.3069 278.149 76.3064C276.707 75.1433 276.381 73.8872 277.218 72.2588C277.451 71.7936 277.73 71.3749 277.916 70.9097C278.195 70.3049 278.428 69.6535 277.823 69.1418C277.172 68.63 276.521 68.8161 275.869 69.1883C274.567 69.9327 273.869 71.1423 273.311 72.445C272.799 73.6546 272.287 74.8642 271.682 76.0273C271.357 76.6321 270.798 77.0973 270.007 77.0043C269.263 76.9113 268.937 76.3529 268.798 75.7481C268.472 74.3524 268.472 72.9102 269.077 71.6075C270.054 69.4675 269.496 67.56 268.24 65.7456C267.588 64.7686 266.751 64.7686 266.053 65.7456C265.774 66.1643 265.541 66.6295 265.169 66.9552C264.89 67.1878 264.332 67.3739 264.006 67.2809C263.773 67.2343 263.541 66.6761 263.587 66.3039C263.587 65.8386 263.773 65.3734 264.006 64.9547C264.611 63.8381 265.309 62.7681 266.006 61.7446C266.611 60.8141 267.402 60.2093 268.658 60.2558C270.147 60.2558 271.124 59.4649 271.45 58.1623C272.008 55.9291 272.52 53.7891 271.077 51.5559C269.542 49.1367 270.566 46.0662 272.985 44.3448C275.544 42.5304 278.335 41.5999 281.545 41.7395C284.104 41.8325 285.5 42.8095 286.104 45.1357C286.244 45.6475 286.384 46.2057 286.663 46.7175C287.035 47.4619 287.919 47.5084 288.477 46.8571C288.989 46.2057 289.082 45.5079 288.849 44.7635C288.431 43.3213 288.058 41.8791 287.686 40.4368C286.802 37.1337 285.686 33.877 286.198 30.3412C286.43 28.5734 287.221 27.2707 288.756 26.4333C290.292 25.5959 291.641 24.7119 292.618 23.2697C293.13 22.4788 294.013 21.9205 295.037 21.874C296.572 21.8274 298.154 21.874 299.689 22.1066C302.062 22.4323 304.435 22.9906 306.807 23.3627C309.041 23.7349 311.181 24.2002 312.623 26.0611C312.949 26.4333 313.46 26.6659 313.832 27.0381C314.391 27.5964 315.089 28.1547 315.321 28.806C315.833 30.3412 316.298 31.9696 316.345 33.5514C316.438 36.715 316.298 39.8785 316.205 43.0422C316.159 44.2517 316.066 45.4614 315.74 46.671C315.275 48.625 314.716 50.5789 314.065 52.4864C313.321 54.766 312.204 56.8596 310.064 58.3018C306.807 60.4419 303.318 61.8376 299.271 61.605C296.991 61.4654 294.804 60.9071 292.664 60.2093C290.431 59.4649 288.245 59.1858 285.872 59.7441C284.662 60.0232 283.406 60.0232 282.15 60.0697C281.173 60.1163 280.336 59.4649 280.103 58.7671C279.638 57.2783 280.94 55.65 282.569 55.65C283.22 55.65 283.964 55.743 284.29 55.0917C284.895 53.7425 285.5 52.3468 285.965 50.9511C286.151 50.3928 285.779 49.9276 285.128 49.8346C284.476 49.7415 283.778 49.788 283.127 49.602C281.033 49.0437 279.126 48.2528 277.963 46.3453C277.312 45.2753 276.195 45.2288 275.265 46.1592C274.753 46.671 274.241 47.2293 273.729 47.7875C272.799 48.718 272.706 49.2763 273.45 50.3928C274.241 51.5559 274.799 52.7655 274.52 54.1612C274.334 55.0452 274.101 55.9291 273.822 56.8131C273.171 58.9997 273.822 60.3489 275.916 61.4189C276.707 61.8376 277.544 62.3959 278.056 63.0938C278.893 64.1638 279.87 64.9082 281.266 65.2803C282.476 65.5595 283.36 66.2108 283.685 67.4204C283.918 68.2579 284.523 68.8626 285.453 69.0022C287.733 69.3279 290.012 69.6535 292.292 69.9327C294.572 70.2118 296.851 70.3979 299.131 70.7236C301.085 71.0027 302.853 70.9562 304.481 69.6535C305.319 68.9557 306.342 68.4905 307.226 67.8857C308.529 66.9087 309.924 66.7226 311.46 67.3274C313.46 68.0718 315.833 67.2808 316.624 65.1873C317.508 62.8146 318.485 60.4419 319.322 58.0227C319.834 56.4874 320.485 55.0452 321.602 53.7425C322.207 53.0447 322.672 52.1607 322.812 51.3233C323.277 48.3458 323.695 45.3683 323.882 42.3908C323.835 40.2042 323.602 38.0641 323.37 35.9706" fill="black"/>
<path d="M310.204 84.4481C308.901 82.215 306.9 81.7032 304.388 82.1219C303.783 82.215 303.132 82.215 302.481 82.1685C301.225 82.0755 300.713 82.3546 300.48 83.5176C300.201 84.8668 299.41 85.7508 298.061 86.2625C297.735 86.4021 297.456 86.5882 297.131 86.6812C294.432 87.7978 292.385 89.6587 290.617 91.7523C288.989 93.7063 287.547 95.7998 286.058 97.8469C285.407 98.6843 284.662 99.4287 283.546 99.5217C282.243 99.6613 280.847 99.7543 279.591 99.5217C275.823 98.7308 272.054 97.8469 268.333 96.8699C266.797 96.4977 265.495 96.5907 264.192 97.4281C261.633 99.103 259.772 101.243 258.609 103.988C257.679 106.128 256.609 108.222 256.236 110.548C256.004 112.176 256.795 113.432 258.423 113.479C260.237 113.525 262.052 113.525 263.866 113.572C265.355 113.572 266.751 113.851 267.96 114.735C269.682 115.944 271.729 116.41 273.776 115.991C275.916 115.572 277.87 115.898 279.824 116.735C281.033 117.294 281.499 117.945 281.266 118.922C281.173 119.341 280.94 119.666 280.754 120.038C280.103 121.341 280.336 122.132 281.778 122.551C283.267 123.016 284.802 123.249 286.337 123.574C287.872 123.528 289.222 122.969 290.431 122.225C292.292 121.015 294.2 119.852 295.828 118.457C298.712 116.037 301.597 113.618 304.109 110.92C307.552 107.198 310.529 103.104 312.809 98.5912C314.251 95.7067 314.484 92.7758 313.367 89.8913C312.623 87.9373 311.227 86.2625 310.204 84.4481" fill="black"/>
<path d="M258.842 116.131C257.679 117.107 256.469 117.852 255.073 118.503C253.678 119.201 253.678 120.504 255.073 121.202C256.609 121.992 258.237 122.597 259.865 123.156C261.214 123.621 262.238 123.109 262.703 121.853C263.075 120.922 263.215 119.899 263.401 118.968C263.308 118.503 263.262 118.131 263.168 117.805C262.75 116.41 260.47 114.735 258.842 116.131Z" fill="black"/>
<path d="M303.318 78.1673C304.621 79.7956 307.552 80.4004 308.482 80.6795C308.715 80.54 310.25 79.563 310.297 79.3769C310.39 79.1908 310.297 78.7721 310.11 78.6325C309.738 78.3068 309.273 78.0277 308.808 77.8416C307.691 77.3764 306.482 77.0507 305.691 76.0737C305.272 75.562 304.993 75.0037 304.528 74.5385C304.342 74.3524 303.737 74.2128 303.597 74.3524C303.365 74.5385 303.225 75.0502 303.318 75.2828C303.644 75.8876 302.899 77.609 303.318 78.1673Z" fill="black"/>
<path d="M397.011 33.758C397.688 34.4346 398.094 35.3142 398.094 36.3967V84.3669C398.094 85.3818 397.755 86.2614 397.011 87.0056C396.267 87.6822 395.387 88.0882 394.44 88.0882C393.425 88.0882 392.546 87.7499 391.801 87.0056C391.125 86.3291 390.719 85.4495 390.719 84.3669V49.1843L373.601 84.0963C372.789 85.3142 371.707 85.9231 370.421 85.9231C368.865 85.9231 367.715 85.1789 367.038 83.758L350.123 49.8609V84.4346C350.123 85.4495 349.785 86.3291 349.041 87.0733C348.364 87.7499 347.485 88.1558 346.402 88.1558C345.387 88.1558 344.508 87.8176 343.763 87.0733C343.087 86.3967 342.681 85.5171 342.681 84.4346V36.4644C342.681 35.4495 343.019 34.57 343.763 33.8257C344.44 33.1491 345.32 32.7432 346.402 32.7432C347.823 32.7432 348.906 33.4197 349.65 34.7053L370.692 76.8568L391.125 34.7053C391.869 33.3521 392.952 32.7432 394.372 32.7432C395.387 32.7432 396.267 33.0815 397.011 33.758Z" fill="black"/>
<path d="M453.912 84.4346C453.912 85.4495 453.574 86.2614 452.83 87.0056C452.153 87.6822 451.273 88.0882 450.191 88.0882C449.514 88.0882 448.838 87.8852 448.161 87.4792C447.552 87.0733 447.079 86.532 446.808 85.7878L442.816 75.8419H417.376L413.317 85.7878C412.978 86.4644 412.505 87.0733 411.896 87.4792C411.287 87.8852 410.61 88.0882 409.934 88.0882C408.919 88.0882 408.039 87.7499 407.363 87.0056C406.686 86.2614 406.348 85.3818 406.348 84.4346C406.348 83.961 406.483 83.4197 406.686 82.8108L426.578 35.3142C427.255 33.6904 428.472 32.8108 430.029 32.8108C431.72 32.8108 432.87 33.6227 433.479 35.3142L453.439 82.9461C453.777 83.4874 453.912 84.0286 453.912 84.4346ZM440.38 69.7526L430.231 44.5158L419.88 69.7526H440.38Z" fill="black"/>
<path d="M516.294 33.758C516.97 34.4346 517.376 35.3142 517.376 36.3967V84.3669C517.376 85.3818 517.038 86.2614 516.294 87.0056C515.55 87.6822 514.67 88.0882 513.723 88.0882C512.708 88.0882 511.828 87.7499 511.084 87.0056C510.407 86.3291 510.001 85.4495 510.001 84.3669V49.1843L492.884 84.0963C492.072 85.3142 490.989 85.9231 489.704 85.9231C488.148 85.9231 486.997 85.1789 486.321 83.758L469.406 49.8609V84.4346C469.406 85.4495 469.068 86.3291 468.324 87.0733C467.647 87.7499 466.767 88.1558 465.685 88.1558C464.67 88.1558 463.79 87.8176 463.046 87.0733C462.37 86.3967 461.964 85.5171 461.964 84.4346V36.4644C461.964 35.4495 462.302 34.57 463.046 33.8257C463.723 33.1491 464.602 32.7432 465.685 32.7432C467.106 32.7432 468.188 33.4197 468.933 34.7053L489.974 76.8568L510.407 34.7053C511.152 33.3521 512.234 32.7432 513.655 32.7432C514.738 32.7432 515.617 33.0815 516.294 33.758Z" fill="black"/>
<path d="M585.847 33.758C586.524 34.4346 586.93 35.3142 586.93 36.3967V84.3669C586.93 85.3818 586.592 86.2614 585.847 87.0056C585.103 87.6822 584.223 88.0882 583.276 88.0882C582.261 88.0882 581.382 87.7499 580.638 87.0056C579.961 86.3291 579.555 85.4495 579.555 84.3669V49.1843L562.437 84.0963C561.625 85.3142 560.543 85.9231 559.257 85.9231C557.701 85.9231 556.551 85.1789 555.874 83.758L538.96 49.8609V84.4346C538.96 85.4495 538.621 86.3291 537.877 87.0733C537.2 87.7499 536.321 88.1558 535.238 88.1558C534.223 88.1558 533.344 87.8176 532.6 87.0733C531.923 86.3967 531.517 85.5171 531.517 84.4346V36.4644C531.517 35.4495 531.855 34.57 532.6 33.8257C533.276 33.1491 534.156 32.7432 535.238 32.7432C536.659 32.7432 537.742 33.4197 538.486 34.7053L559.528 76.8568L579.961 34.7053C580.705 33.3521 581.788 32.7432 583.209 32.7432C584.291 32.7432 585.103 33.0815 585.847 33.758Z" fill="black"/>
<path d="M641.192 35.6526C645.455 38.0883 648.77 41.4036 651.206 45.7338C653.574 50.0639 654.792 54.9354 654.792 60.4157C654.792 65.8961 653.574 70.7676 651.206 75.0977C648.838 79.4279 645.522 82.8109 641.26 85.1789C636.997 87.547 632.126 88.7648 626.646 88.7648C621.165 88.7648 616.294 87.547 612.031 85.1789C607.769 82.7432 604.453 79.4279 602.085 75.0977C599.717 70.7676 598.567 65.8961 598.567 60.4157C598.567 54.9354 599.717 50.0639 602.085 45.7338C604.453 41.4712 607.769 38.0883 612.031 35.6526C616.294 33.2168 621.165 32.0666 626.646 32.0666C632.058 31.9989 636.93 33.2168 641.192 35.6526ZM615.753 41.5389C612.573 43.4334 610.069 46.0044 608.31 49.3197C606.483 52.635 605.604 56.2885 605.604 60.3481C605.604 64.4076 606.483 68.0612 608.31 71.3765C610.137 74.6918 612.573 77.2628 615.82 79.2249C619 81.1194 622.654 82.0666 626.646 82.0666C630.637 82.0666 634.291 81.1194 637.471 79.2249C640.651 77.3305 643.154 74.6918 644.981 71.3765C646.808 68.0612 647.688 64.4076 647.688 60.3481C647.688 56.2885 646.808 52.635 644.981 49.3197C643.154 46.0044 640.719 43.4334 637.539 41.5389C634.359 39.6444 630.705 38.6972 626.646 38.6972C622.586 38.6972 618.932 39.6444 615.753 41.5389Z" fill="black"/>
<path d="M699.717 33.6904C700.326 34.2993 700.664 35.1112 700.664 36.1261C700.664 37.141 700.326 37.9529 699.717 38.5618C699.108 39.1708 698.296 39.5091 697.282 39.5091H682.058V84.3669C682.058 85.3818 681.72 86.2614 680.976 87.0056C680.299 87.6822 679.42 88.0882 678.337 88.0882C677.322 88.0882 676.443 87.7499 675.698 87.0056C675.022 86.3291 674.616 85.4495 674.616 84.3669V39.5091H659.392C658.378 39.5091 657.566 39.1708 656.957 38.5618C656.348 37.9529 656.01 37.141 656.01 36.1261C656.01 35.1112 656.348 34.2993 656.957 33.6904C657.566 33.0815 658.378 32.7432 659.392 32.7432H697.282C698.296 32.7432 699.108 33.0138 699.717 33.6904Z" fill="black"/>
<path d="M750.123 33.7581C750.8 33.0815 751.679 32.7432 752.762 32.7432C753.777 32.7432 754.656 33.0815 755.333 33.7581C756.009 34.4347 756.348 35.3142 756.348 36.3968V84.367C756.348 85.4495 756.009 86.3291 755.333 87.0057C754.656 87.6823 753.777 88.0206 752.762 88.0206C751.747 88.0206 750.867 87.6823 750.123 86.938C749.447 86.2614 749.041 85.3819 749.041 84.2993V63.1897H716.158V84.2993C716.158 85.3142 715.82 86.1938 715.143 86.938C714.467 87.6146 713.587 88.0206 712.505 88.0206C711.49 88.0206 710.61 87.6823 709.866 86.938C709.189 86.2614 708.783 85.3819 708.783 84.2993V36.3291C708.783 35.2466 709.122 34.367 709.866 33.6904C710.543 33.0138 711.422 32.6755 712.505 32.6755C713.587 32.6755 714.467 33.0138 715.143 33.6904C715.82 34.367 716.158 35.2466 716.158 36.3291V56.6268H749.041V36.3291C749.041 35.3142 749.447 34.4347 750.123 33.7581Z" fill="black"/>
<path d="M381.005 132.214C381.476 132.637 381.711 133.059 381.711 133.693V147.002C381.711 147.636 381.476 148.164 381.005 148.481C377.24 151.544 372.416 153.129 366.297 153.129C362.061 153.129 358.179 152.178 354.649 150.277C351.119 148.375 348.295 145.735 346.177 142.46C344.059 139.186 343 135.594 343 131.686C343 127.778 344.059 124.186 346.059 120.912C348.177 117.637 351.001 114.996 354.531 113.095C358.061 111.194 361.944 110.243 366.297 110.243C369.121 110.243 371.828 110.666 374.181 111.405C376.534 112.144 378.77 113.412 381.005 114.996C381.476 115.313 381.711 115.736 381.711 116.264C381.711 116.581 381.594 116.792 381.476 117.003C381.358 117.215 381.123 117.426 380.77 117.532C380.652 117.743 380.535 117.954 380.182 118.165C379.946 118.377 379.593 118.377 379.24 118.377C378.652 118.377 378.181 118.165 377.711 117.848C376.181 116.581 374.416 115.63 372.651 115.102C370.769 114.574 368.651 114.257 366.297 114.257C362.885 114.257 359.826 115.102 357.002 116.687C354.178 118.271 351.825 120.384 350.177 123.13C348.53 125.771 347.589 128.728 347.589 131.792C347.589 134.96 348.413 137.918 350.06 140.664C351.707 143.305 354.06 145.523 356.884 147.108C359.708 148.692 362.885 149.432 366.297 149.432C370.18 149.432 373.71 148.375 377.122 146.368V135.594H367.827C367.121 135.594 366.533 135.383 366.18 135.066C365.709 134.749 365.474 134.221 365.474 133.693C365.474 133.165 365.709 132.742 366.18 132.425C366.65 132.108 367.121 131.897 367.827 131.897H379.358C380.064 131.686 380.652 131.897 381.005 132.214Z" fill="black"/>
<path d="M427.365 149.22C427.835 149.643 428.071 150.065 428.071 150.699C428.071 151.333 427.835 151.756 427.365 152.178C426.894 152.601 426.423 152.812 425.717 152.812H397.596C397.007 152.812 396.419 152.601 395.948 152.178C395.478 151.756 395.242 151.227 395.242 150.699V112.884C395.242 112.25 395.478 111.722 395.948 111.405C396.419 110.983 397.007 110.771 397.596 110.771H425.717C426.423 110.771 427.012 110.983 427.365 111.405C427.835 111.828 428.071 112.25 428.071 112.884C428.071 113.518 427.835 113.94 427.365 114.363C426.894 114.785 426.423 114.891 425.717 114.891H399.949V129.785H418.657C419.363 129.785 419.952 129.996 420.305 130.418C420.775 130.841 421.011 131.263 421.011 131.897C421.011 132.425 420.775 132.953 420.305 133.376C419.834 133.798 419.246 134.01 418.657 134.01H399.949V149.009H425.717C426.423 148.587 426.894 148.798 427.365 149.22Z" fill="black"/>
<path d="M474.312 112.884C477.96 114.785 480.784 117.32 482.902 120.595C484.902 123.869 485.961 127.566 485.961 131.58C485.961 135.7 484.902 139.397 482.902 142.671C480.902 145.946 477.96 148.481 474.312 150.382C470.665 152.284 466.547 153.129 462.075 153.129C457.487 153.129 453.486 152.178 449.838 150.382C446.191 148.481 443.367 145.946 441.249 142.671C439.249 139.397 438.19 135.7 438.19 131.58C438.19 127.461 439.249 123.869 441.249 120.595C443.249 117.32 446.191 114.785 449.838 112.884C453.486 110.982 457.604 110.137 462.075 110.137C466.547 110.137 470.665 111.088 474.312 112.884ZM452.192 116.37C449.25 117.954 446.897 120.067 445.25 122.707C443.602 125.348 442.779 128.306 442.779 131.58C442.779 134.855 443.602 137.812 445.25 140.559C446.897 143.2 449.25 145.312 452.192 146.897C455.133 148.481 458.428 149.22 462.075 149.22C465.723 149.22 469.018 148.481 471.959 146.897C474.901 145.312 477.254 143.2 478.901 140.559C480.549 137.918 481.372 134.855 481.372 131.58C481.372 128.306 480.549 125.348 478.901 122.707C477.254 120.067 474.901 117.954 471.959 116.37C469.018 114.785 465.723 114.046 462.075 114.046C458.428 114.151 455.133 114.891 452.192 116.37Z" fill="black"/>
<path d="M522.084 112.039C524.437 113.306 526.32 114.891 527.732 116.898C527.967 117.32 528.203 117.743 528.203 118.165C528.203 118.799 527.85 119.433 527.144 119.75C526.791 119.855 526.438 119.961 526.085 119.961C525.614 119.961 525.261 119.855 524.908 119.644C524.555 119.433 524.202 119.222 523.967 118.799C521.731 115.63 518.319 114.046 513.848 114.046C510.671 114.046 508.082 114.68 506.199 115.841C504.317 117.109 503.376 118.799 503.376 121.017C503.376 125.242 507.141 127.778 514.671 128.623C519.613 129.256 523.261 130.63 525.732 132.742C528.203 134.855 529.379 137.601 529.379 140.981C529.379 143.516 528.673 145.629 527.379 147.53C525.967 149.326 524.202 150.699 521.849 151.65C519.495 152.601 516.907 153.023 513.965 153.023C510.2 153.023 506.788 152.284 503.846 150.805C500.905 149.326 498.787 147.425 497.492 144.89C497.375 144.678 497.257 144.361 497.257 144.045C497.257 143.516 497.492 143.094 497.845 142.777C498.316 142.46 498.787 142.249 499.61 142.249C500.081 142.249 500.552 142.354 500.905 142.566C501.375 142.777 501.611 143.094 501.846 143.516C502.787 145.101 504.317 146.474 506.435 147.425C508.553 148.375 511.024 148.904 513.848 148.904C517.142 148.904 519.731 148.164 521.731 146.791C523.731 145.418 524.673 143.411 524.673 140.876C524.673 138.657 523.731 136.756 521.849 135.172C519.966 133.587 517.26 132.637 513.495 132.214C508.906 131.686 505.258 130.418 502.552 128.306C499.846 126.193 498.551 123.658 498.551 120.595C498.551 118.482 499.257 116.581 500.552 114.891C501.846 113.306 503.611 112.039 505.964 111.088C508.317 110.243 510.906 109.821 513.73 109.821C516.907 110.137 519.613 110.771 522.084 112.039Z" fill="black"/>
<path d="M546.676 152.072C546.205 152.495 545.734 152.706 545.029 152.706C544.323 152.706 543.734 152.495 543.381 152.072C542.911 151.65 542.675 151.227 542.675 150.594V112.778C542.675 112.144 542.911 111.616 543.381 111.299C543.852 110.877 544.323 110.666 545.029 110.666H557.03C559.972 110.666 562.56 111.299 564.796 112.461C567.149 113.623 568.914 115.208 570.208 117.32C571.503 119.433 572.091 121.757 572.091 124.397C572.091 127.038 571.503 129.362 570.208 131.369C568.914 133.376 567.149 134.96 564.796 136.122C562.443 137.284 559.854 137.812 557.03 137.812H547.382V150.594C547.382 151.227 547.146 151.65 546.676 152.072ZM562.443 132.531C564.09 131.686 565.267 130.63 566.208 129.151C567.149 127.672 567.502 126.087 567.502 124.292C567.502 122.39 567.032 120.806 566.208 119.327C565.384 117.848 564.09 116.686 562.443 115.947C560.795 115.102 559.03 114.679 557.03 114.679H547.382V133.798H557.03C559.03 133.798 560.913 133.376 562.443 132.531Z" fill="black"/>
<path d="M616.685 150.594C616.685 151.122 616.45 151.65 615.979 152.072C615.509 152.495 614.921 152.706 614.332 152.706C613.273 152.706 612.567 152.284 612.097 151.439L608.096 142.777H584.916L580.916 151.439C580.563 152.284 579.857 152.706 578.798 152.706C578.092 152.706 577.621 152.495 577.151 152.072C576.68 151.65 576.562 151.122 576.562 150.594C576.562 150.277 576.68 149.96 576.798 149.643L594.447 112.144C594.918 111.194 595.624 110.666 596.683 110.666C597.742 110.666 598.448 111.194 598.918 112.144L616.568 149.748C616.568 149.96 616.685 150.277 616.685 150.594ZM606.449 139.08L596.447 117.531L586.446 139.08H606.449Z" fill="black"/>
<path d="M654.103 111.194C654.456 111.511 654.691 112.039 654.691 112.567C654.691 113.095 654.456 113.518 654.103 113.94C653.75 114.257 653.161 114.468 652.573 114.468H638.336V150.594C638.336 151.122 638.1 151.65 637.63 152.072C637.159 152.495 636.688 152.706 635.982 152.706C635.394 152.706 634.806 152.495 634.335 152.072C633.864 151.65 633.629 151.122 633.629 150.594V114.468H619.392C618.804 114.468 618.215 114.257 617.862 113.94C617.509 113.623 617.274 113.095 617.274 112.567C617.274 112.039 617.509 111.511 617.862 111.194C618.215 110.877 618.804 110.666 619.392 110.666H652.573C653.161 110.666 653.632 110.877 654.103 111.194Z" fill="black"/>
<path d="M665.986 111.299C666.457 110.877 667.045 110.666 667.634 110.666C668.34 110.666 668.928 110.877 669.281 111.299C669.752 111.722 669.987 112.144 669.987 112.778V150.594C669.987 151.122 669.752 151.65 669.281 152.072C668.81 152.495 668.34 152.706 667.634 152.706C667.045 152.706 666.457 152.495 665.986 152.072C665.516 151.65 665.28 151.122 665.28 150.594V112.778C665.28 112.144 665.516 111.616 665.986 111.299Z" fill="black"/>
<path d="M720.935 150.594C720.935 151.122 720.7 151.65 720.229 152.072C719.759 152.495 719.17 152.706 718.582 152.706C717.523 152.706 716.817 152.284 716.346 151.439L712.346 142.777H689.166L685.166 151.439C684.813 152.284 684.107 152.706 683.048 152.706C682.342 152.706 681.871 152.495 681.4 152.072C680.93 151.65 680.812 151.122 680.812 150.594C680.812 150.277 680.93 149.96 681.047 149.643L698.697 112.144C699.168 111.194 699.874 110.666 700.933 110.666C701.991 110.666 702.697 111.194 703.168 112.144L720.818 149.748C720.935 149.96 720.935 150.277 720.935 150.594ZM710.816 139.08L700.815 117.531L690.813 139.08H710.816Z" fill="black"/>
<path d="M761.294 149.22C761.764 149.643 762 150.065 762 150.699C762 151.333 761.764 151.755 761.294 152.178C760.823 152.6 760.353 152.706 759.647 152.706H733.878C733.29 152.706 732.702 152.495 732.231 152.072C731.76 151.65 731.525 151.122 731.525 150.594V112.778C731.525 112.25 731.76 111.722 732.231 111.299C732.702 110.877 733.29 110.666 733.878 110.666C734.584 110.666 735.172 110.877 735.525 111.299C735.996 111.722 736.231 112.144 736.231 112.778V148.692H759.647C760.235 148.692 760.823 148.903 761.294 149.22Z" fill="black"/>
</g>
<defs>
<clipPath id="clip0_151_3">
<rect width="762.348" height="183.357" fill="white"/>
</clipPath>
</defs>
</svg>
