<svg width="300" height="99" viewBox="0 0 300 99" fill="none" xmlns="http://www.w3.org/2000/svg">
<path d="M50.3713 53.6029H63.2607L52.3521 41.7256H38.9875V55.8682L50.3713 68.3638V53.6029Z" fill="#EE7913"/>
<path d="M181.731 47.7536V83.6166C172.774 90.8162 159.094 95.7486 147.352 95.7486C121.689 95.7486 102.2 75.2186 102.2 48.1541C102.2 21.2235 122.052 0.826172 148.443 0.826172C161.033 0.826172 173.863 6.1591 182.458 14.4244L171.684 29.4902C165.389 23.0909 156.674 19.0909 148.443 19.0909C133.431 19.0909 121.81 31.7561 121.81 48.1541C121.81 64.6854 133.553 77.3519 148.563 77.3519C153.647 77.3519 159.7 75.3519 165.148 72.2856V47.7542H181.731V47.7536Z" fill="url(#paint0_linear_94_2)"/>
<path d="M198.438 94.8151V1.49219H217.563V94.8151H198.438Z" fill="url(#paint1_linear_94_2)"/>
<path d="M299.514 10.6911L292.13 28.1554C283.173 22.2894 272.52 18.5566 265.741 18.5566C259.325 18.5566 254.968 21.0897 254.968 26.1561C254.968 43.3545 300.121 33.7556 300 67.3513C300 85.6161 285.593 95.4815 266.831 95.4815C252.909 95.4815 238.988 89.6154 229.426 80.683L237.052 63.4853C245.768 72.0185 258.115 77.484 267.072 77.484C274.942 77.484 279.662 74.2844 279.662 68.5516C279.662 50.954 234.51 61.2193 234.51 28.1561C234.51 11.2249 247.705 0.559082 267.316 0.559082C279.179 0.558422 291.041 4.55845 299.514 10.6911Z" fill="url(#paint2_linear_94_2)"/>
<path d="M91.7123 84.5803L68.7153 59.5415H55.7635V74.2826L77.8013 98.4729H91.7123V84.5803Z" fill="url(#paint3_linear_94_2)"/>
<path d="M55.7636 59.5417H68.7154L63.2608 53.603H50.3713V68.364L55.7636 74.2829V59.5417Z" fill="#F0E64A"/>
<path d="M52.2 77.9279C50.2473 78.4228 48.2168 78.6914 46.1222 78.6914C31.1406 78.6914 18.3992 65.1235 18.3992 47.5318C18.3992 29.9402 31.0004 16.6712 46.1222 16.6712C61.2441 16.6712 73.2851 29.9395 73.2851 47.5318C73.2851 50.393 72.9615 53.1459 72.363 55.7536L86.2296 71.0226C89.8047 64.1238 91.8047 56.1027 91.8047 47.4144C91.8047 20.301 72.1581 0 45.8418 0C19.646 0 0 20.1677 0 47.4144C0 74.7943 19.6466 95.3632 45.8418 95.3632C52.6044 95.3632 58.9242 93.9934 64.5855 91.5005L52.2 77.9279Z" fill="url(#paint4_linear_94_2)"/>
<path d="M38.9875 41.7256L91.7124 98.4729V84.5799L68.7155 59.5416L63.2611 53.6029L52.3525 41.7256H38.9875Z" fill="white" fill-opacity="0.172549"/>
<defs>
<linearGradient id="paint0_linear_94_2" x1="143.252" y1="98.3301" x2="141.624" y2="1.13892" gradientUnits="userSpaceOnUse">
<stop stop-color="#589632"/>
<stop offset="1" stop-color="#93B023"/>
</linearGradient>
<linearGradient id="paint1_linear_94_2" x1="208.679" y1="97.2346" x2="207.051" y2="0.0429239" gradientUnits="userSpaceOnUse">
<stop stop-color="#589632"/>
<stop offset="1" stop-color="#93B023"/>
</linearGradient>
<linearGradient id="paint2_linear_94_2" x1="265.169" y1="96.2875" x2="263.541" y2="-0.90351" gradientUnits="userSpaceOnUse">
<stop stop-color="#589632"/>
<stop offset="1" stop-color="#93B023"/>
</linearGradient>
<linearGradient id="paint3_linear_94_2" x1="74.0196" y1="99.8151" x2="72.3779" y2="1.80762" gradientUnits="userSpaceOnUse">
<stop stop-color="#589632"/>
<stop offset="1" stop-color="#93B023"/>
</linearGradient>
<linearGradient id="paint4_linear_94_2" x1="46.6284" y1="99.9482" x2="45.0004" y2="2.75716" gradientUnits="userSpaceOnUse">
<stop stop-color="#589632"/>
<stop offset="1" stop-color="#93B023"/>
</linearGradient>
</defs>
</svg>
